<?xml version="1.0" encoding="utf-8"?>
<!-- Generator: Adobe Illustrator 19.2.1, SVG Export Plug-In . SVG Version: 6.00 Build 0)  -->
<svg version="1.1" xmlns="http://www.w3.org/2000/svg" xmlns:xlink="http://www.w3.org/1999/xlink" x="0px" y="0px"
	 viewBox="0 0 500 350" style="enable-background:new 0 0 500 350;"  preserveAspectRatio="xMaxYMax" xml:space="preserve">
<style type="text/css">
	.st0{fill:#FFFFFF;stroke:#000000;stroke-width:2;stroke-linecap:round;stroke-linejoin:round;stroke-miterlimit:10;}

	.st8{font-family:'MyriadPro-Regular';}
	.st9{font-size:7.5808px;}

</style>
<g id="base">
	<g>
		<path class="st0" d="M495.5,330.6c-7.4,0.7-14.8,1-22.2,1.5c-8.4,0.5-16.7,1.3-25.1,1.8c-2.6,0.2-5.2,0.1-7.8,0.4
			c-3.8,0.4-7.7,0.2-11.6,0.6c-5.8,0.7-11.7,0.5-17.5,1.3c-2.5,0.3-5,0.2-7.6,0.4c-6.4,0.6-12.9,0.6-19.4,1.1
			c-8.4,0.5-16.7,1.3-25.1,1.9c-2.5,0.2-5,0.2-7.6,0.4c-6.4,0.6-12.8,0.6-19.1,1.1c-7.7,0.5-15.4,1.1-23.2,1.5
			c-4.6,0.2-9.3,0.5-13.9,1c-5.9,0.5-11.8,0.6-17.7,1.3c-3,0.3-6,0.4-9,0.6c-6.9,0.4-13.7,0.7-20.6,1.4c-2.5,0.3-5,0.2-7.6,0.4
			c-6.4,0.6-12.9,0.6-19.4,1.1c-8.4,0.5-16.7,1.3-25.1,1.8c-3.6,0.2-7.1-0.1-10.7-0.8c-2.5-0.5-5.2-0.7-7.8-1.1
			c-3.9-0.5-7.7-1.1-11.6-1.6c-3.9-0.6-7.7-1-11.6-1.7c-3.9-0.7-7.7-1.1-11.6-1.8c-2.6-0.4-5.4-0.7-8-1.1c-3.9-0.6-7.9-1.1-11.8-1.8
			c-3.5-0.6-7.1-1-10.6-1.5c-4.1-0.6-8.2-1.3-12.3-1.8c-3.9-0.5-7.7-1.1-11.6-1.6c-4.8-0.5-9.6-1.4-14.4-2.1
			c-3.6-0.5-7.2-1.1-10.9-1.7c-4.1-0.6-8.2-1.3-12.3-1.8c-3.9-0.5-7.7-1.1-11.6-1.6c-4.8-0.5-9.6-1.4-14.4-2.1
			c-3.8-0.6-7.6-1.1-11.3-1.7c-1.1-0.2-2.2-0.3-3.3-0.5"/>
		<path class="st0" d="M495.5,300.8c-7.2,0.6-14.3,0.6-21.5,1c-9.5,0.5-18.9,0.5-28.4,1.3c-4.1,0.3-8.2,0.1-12.3,0.4
			c-6.3,0.5-12.6,0.1-18.9,0.6c-9,0.7-18,0.5-27,1.3c-3.9,0.4-7.9,0.3-11.8,0.4c-6.3,0.2-12.6,0.6-18.9,0.7
			c-9.1,0.2-18.3,0.9-27.4,1.3c-3.9,0.2-7.9,0.3-11.8,0.4c-6.3,0.1-12.6,0.5-18.9,0.7c-8.1,0.2-16.2,0.6-24.4,0.9
			c-7.5,0.3-15,0.7-22.5,0.9c-9,0.3-18,1.1-27,1.3c-5.4,0.1-10.9,0.6-16.3,0.6c-2.2,0-4.5-0.3-6.6,0.5c-1,0.4-1.2-0.6-1.9-0.5
			c-3.5,0.1-6.9-0.6-10.4-0.9c-4.1-0.4-8.2-0.7-12.3-1.4c-1.9-0.3-3.8-0.2-5.7-0.5c-5.8-0.6-11.7-1.1-17.5-1.9
			c-3.9-0.5-7.9-0.5-11.8-1c-3.7-0.5-7.4-0.6-11.1-1.3c-1.7-0.3-3.5-0.3-5.2-0.5c-6-0.6-12-1.1-18-1.9c-1.3-0.2-2.6,0-3.8-0.7
			c-0.8-0.4-1.5,0.3-2.1,0.9c-3.9,3.5-7.9,6.9-11.8,10.5c-0.7,0.6-1.5,0.8-2.1,1.4c-2.4,2.2-3,2.3-4.7-0.3c-2-3.1-4.1-6.3-3.6-10.4
			c0.2-1.4,0.9-2.7,0-4"/>
		<path class="st0" d="M203.2,242.4c0.2,1.4,1.3,1,2,0.9c3.9-0.3,7.7-0.1,11.6,0c15,0.5,29.9-0.3,44.9-0.4c8-0.1,16.1-0.3,24.1-0.3
			c7.9,0,15.8,0.7,23.6,1.4c2.9,0.3,5.8,0.3,8.8,0.4c4.4,0.2,8.8,0.5,13.2,0.7c8.4,0.2,16.7,0.7,25.1,1c3.9,0.2,7.9,0,11.8,0.4
			c9.8,1,19.6,0.1,29.3,0.8c5.5,0.4,11,0.5,16.6-0.3c2.7-0.4,5.5,0,8.3-0.1c6.2-0.2,12.5-0.4,18.7-1.4c1.1-0.2,2.2,0.1,3.4-0.3
			c0.8,0.5,1.1,1.2,1.2,2.2c0.7,6.4,1.6,12.9,0.6,19.4c-2.1,13.6-8.4,22.7-22.7,26.9c-2.7,0.8-5.6,1-8.5,1.1
			c-9.3,0.3-18.6,0.6-27.9,1c-3.9,0.2-7.9,0.1-11.8,0.4c-9.6,0.6-19.2,0.7-28.8,1.1c-3.9,0.2-7.9,0.2-11.8,0.3
			c-11.2,0.5-22.4,0.7-33.6,1.1c-4.6,0.1-9.3,0.1-14,0.4c-9.1,0.6-18.3,0.2-27.4,0.5c-5.6,0.2-11.2,0.6-16.8,0.3
			c-7.3-0.4-14.7-0.1-22-0.5c-3.6-0.2-7.1-0.1-10.6-0.4c-5.2-0.4-10.4-0.7-15.6-1c-5.4-0.2-10.7-0.7-16.1-1.4
			c-3.9-0.5-7.7-1.8-11.4-3.2c-6.8-2.6-11.7-7.4-15.6-13.3c-2-2.9-2.1-6.5-3.3-9.7c-2.7-6.9-3.3-14.2-4-21.5
			c-0.2-2.1,1.4-3.8,3.5-3.8c10.4-0.1,20.8-0.5,31.2-0.6c8-0.1,15.9-0.9,23.9-1.3"/>
		<path class="st0" d="M444.7,110.9c1.7-4.1,2.5-8.4,3.2-12.8c0.7-5,0.6-10-1.1-14.6c-2.6-6.8-3.7-14.2-7.4-20.6
			c-4.9-8.5-11.2-15.6-19-21.5c-6.7-5-13.4-10-20.8-13.9c-9.2-4.9-18.9-8.8-29.3-10.5c-4.9-0.8-9.9-1.4-14.9-1.4
			c-2.2,0-4.3,0.2-6.2,1.4c-0.5,0.3-1.4,0.1-2.1,0.3c-2,0.6-4.3-0.3-6.2,1.3c-0.7,0.6-2.2,0.1-3.2-0.4c-10.3-4.3-20.9-7.6-31.9-9.8
			C297.8,6.9,290,5.7,282,6.3c-5.4,0.4-10.7,0.6-16.1,1.2c-3.8,0.4-7.6,0.7-11.3,1.1c-4,0.5-8.1,1.1-12.1,1.7
			c-5.2,0.8-10.4,1.8-15.6,2.9c-13.3,3-26.5,6.2-38,13.7c-8.3,5.4-15.8,11.8-22.3,19.3c-5.5,6.3-10.4,13-14.4,20.4
			c-4.3,7.8-7,16-8.1,24.8c-0.4,3.7-1.1,7.4-0.9,11.1c0.2,3.5,0.6,6.9,0.9,10.4c0,0.6,0.9,0.6,0.7,1.3"/>
		<path class="st0" d="M285.8,181.2c1.7,0.6,3.4,0.9,5.2,1c5.4,0.3,10.7,0.7,16.1,1.3c2.4,0.2,4.9,0.5,7.3,0.6
			c17.8,0.9,33.9,6.2,46.8,19.1c7.1,7.1,12.5,15.1,15.8,24.6c0.9,2.5,2.1,5,3.8,7.1c3.6,4.7,7.2,3.7,10.1,0.4c2.8-3.3,6.1-6,9.6-8.7
			c10.4-8,21.4-15,32.4-22.2c1.7-1.1,3.2-2,5.7-1.6c4.9,0.9,9-1.4,12.5-4.8c0.2-0.2,0.4-0.5,0.2-0.8"/>
		<path class="st0" d="M253.4,179c-2.4,0.9-5.1,0.6-7.6,1.1c-8.1,1.8-16,3.8-23.4,7.6c-3.3,1.7-5.1,4.7-7.3,7.4
			c-4.9,6.1-9.8,12.2-13.3,19.4c-1.5,3-2.7,6.1-3.8,9.2c-0.5,1.4-1.1,2.9-2.4,3.8c-1.5,1-3.8,0.5-5.7-1.2c-5.1-4.6-10.6-8.7-16.6-12
			c-8.9-5-18.3-8.5-28.4-10.5c-6.2-1.2-12.4-1.6-18.7-1.4c-0.9,0-1.9,0.2-3.1-0.3c-0.2-3.1,1.2-5.7,2.9-8.1c1.4-2.1,3.2-4,5.4-5.2
			c0.9-0.5,1.3-1.3,1.9-2"/>
		<path class="st0" d="M330.2,108.3c-1.7,1.8-1.8,4.2-2.6,6.4c-2.3,7.2-3.9,14.6-7.2,21.5c-1.3,2.8-2.6,5.7-5.1,7.9
			c-2.2,1.8-4.5,1.8-6.9,1.5c-1.2-0.2-2.6-0.4-3.8-0.9c-2.2-1-4.4,0-6.6,0c-3.5,0-6.9,0.1-10.4,0c-6.1-0.2-12.1-0.7-18.2-1
			c-4.2-0.2-8.4-0.6-12.5-0.9c-5.7-0.4-11.4-0.9-17-1.4c-5.1-0.4-10.2-0.9-15.4-1.4c-4.9-0.5-9.8-0.9-14.7-1.4
			c-6.1-0.6-12.1-1.3-18.2-1.9c-3-0.3-6-1-8.9-0.9c-0.2,0.8-0.4,1.3-0.5,1.9c-0.9,3.1-0.2,4.5,2.8,5.2c0.9,0.2,1.7,0.3,2.4,1"/>
		<path class="st0" d="M128.8,202.9c-1.8,4.4-2.2,9-1.6,13.7c0.2,1.7,0.1,3.4,0.9,5c0.5,1-0.3,2-0.4,3.1c-0.2,4.1,0.2,8.2,0.7,12.3
			c0.1,0.7,0.5,1.1,0.8,1.6c0.5,1,1.2,1.9,1.1,3.4c-5.6,4.2-11.2,8.6-17,12.9c-10.4,7.8-20.8,15.4-31.2,23.2
			c-12.6,9.4-25.2,18.9-37.8,28.4c-0.1,0.1-0.1,0.2-0.2,0.2c-1.3,0.5-3.1,0.7-3,2.4c0.1,1.5,1.4,2.7,2.5,3.8
			c2.3,2.5,4.4,5.2,7.2,7.6c2.4-1,4.5-2.9,6.8-4.5c6.8-4.7,13.4-9.6,20.1-14.4c0.5-0.4,1.1-0.7,1.7-0.9c1.3-0.4,1.7-1.3,1.7-2.6
			c-0.1-1.5,0.4-2.9,1.2-4.3"/>
		<path class="st0" d="M108.2,250c-2.3-0.9-4.4,0.3-6.4,0.8c-14,3.8-28,7.3-42.1,10.8c-8.2,2.1-16.4,4.4-24.6,6.6
			c-3.1,0.8-5.3,2-6.1,5.7c-0.4,1.9-2,3.7-2.7,5.7c-0.3,1-0.6,1.9,0.6,2.9c3.5,2.8,6.7,6,10.4,8.5"/>
		<path class="st0" d="M262.6,99.8c-0.8-1-2-0.9-3.1-1c-4.6-0.3-9.2,0.2-13.7,0.6c-3.7,0.3-7.5,0.2-11.1,0.8c-4.3,0.7-8.7,0.7-13,1
			c-7.6,0.4-15.1,1.2-22.7,1.9c-4.4,0.4-9,0.3-13.2,1.6c-5.3,1.6-10.7,0.7-15.9,2.1c-4.8,1.4-9.8,2.2-14.6,3.4
			c-0.7,0.2-1.5,0.5-1.7,1.4"/>
		<path class="st0" d="M135.9,246.9c-3.6,2.2-7.6,3.6-11.4,5.6c-7.8,4.1-14.8,9.2-21.5,14.9c-7.4,6.4-13.8,13.7-19.6,21.6
			c-0.6,0.9-1.5,1.6-1.4,2.8c0.1,0.7-0.1,1.4,0.9,2c1.7,1.1,2.5,3.2,4.3,4.4c0.6,0.4,0.2,1.1,0.2,1.6c0,4.1,0,8.2,0,12.3
			c0,1-0.1,2,0.7,2.8"/>
		<path class="st0" d="M326.5,166.3c1.3,1,2.9,1.1,4.5,1.5c6.3,1.5,12.6,3.2,18.9,4.9c6.9,1.9,13.9,3.8,20.8,5.6
			c2.2,0.6,4.1-0.8,5.9-1.9c2.9-1.8,5.5-3.9,8.2-5.8c7.7,5.5,15.3,10.9,23.7,15.4c5.7,3,10.8,2.8,16.1-0.3c1.2-0.7,2.2-0.8,3.8-0.2
			c4.5,1.8,9.2,3,13.9,4.4c0.2,0.1,0.5-0.1,0.7-0.2"/>
		<path class="st0" d="M142.3,249c-1.8,3.2-5.1,5-7.6,7.5c-3.3,3.3-7.1,6.2-10.6,9.3c-7,6.1-13.9,12.3-20.8,18.4
			c-4.9,4.4-9.8,8.8-14.7,13.2c-0.4,0.3-0.8,0.6-1.2,0.8"/>
		<path class="st0" d="M422.4,134.1c-0.8-0.4-1.6-0.2-2.4-0.2c-6.1,0-12.3-0.3-18.4,0.1c-5,0.3-10,0-14.9,0.5
			c-3.4,0.3-6.8,0.3-10.2,0.3c-1.9,0-3.6,0.8-5.4,1.1c-1.3,0.2-2.5,0.3-3.8,0.1"/>
		<path class="st0" d="M443.7,278.1c0.9,0.7,2,0.5,3.1,0.5c16.2,0,32.5,0,48.7,0"/>
		<path class="st0" d="M459.1,200.3c0.9,3.2,2.8,6,3.6,9.2c0.6,2.6,1.3,5.1,1.2,7.8c-0.1,2.5,0.4,4.9,0.8,7.4
			c0.6,3.8-0.6,7.8-4.9,9.8c-4.7,2.2-7.7,5.8-10.6,9.8c-0.9,1.3-1.6,2.6-3.3,2.8"/>
		<path class="st0" d="M125.2,238.1c-2-0.9-4.2-0.4-6.1-0.1c-2.6,0.3-5.2,0.4-7.8,0.9c-3.5,0.6-7.1,0.8-10.7,1.3
			c-5.3,0.8-10.7,1-16.1,1.5c-2.4,0.2-4.9,0.2-7.3,0.5c-1.4,0.2-2.4,1.3-4,1.5c-3.7,0.5-7.4,1.2-11.1,1.8c-4.5,0.7-9,1.7-13.5,2.6
			c-6.8,1.3-13.6,3-20.3,4.8c-2.2,0.6-4.4,1.1-6.3,2.2c-1.8,1-0.7,3.1-0.4,4.4c0.5,2,0.3,4,0.7,5.9c0.5,2.2,0.4,4.5,1.5,6.6"/>
		<path class="st0" d="M128.1,237.4c-3.1,0.4-4.4,3.4-6.8,4.8c-4,2.3-7.5,5.2-11.5,7.4c-2.7,1.5-5,4.1-7.6,6
			c-2.6,1.9-5.5,3.3-8.3,4.9c-1.7,1-3.6,0.2-5.5,0.8c-14.1,4.9-28.3,9.6-42.6,14.2c-0.7,0.2-1.1,0.9-2.1,0.7
			c-3.1-2.7-7.6-3.8-10.6-7.1"/>
		<path class="st0" d="M162.4,291.8c-1.8,0.9-3.7,1-5.7,0.9c-9.3-0.3-18.6,0.6-27.9,0.6c-3.7,0-7.4,0.4-11.1,0.4
			c-0.9,0-1.8,0-2.6-0.5"/>
		<path class="st0" d="M247,119.4c-0.2-1.1,0.4-1.8,0.9-2.6c2.5-3.7,4.9-7.4,7.4-11.1c0.3-0.5,0.6-0.9,0.7-1.4
			c0.3-1.6,1.4-2.4,2.9-2.6c1.6-0.3,3-0.6,4.3-1.9c1.3-1.4,3.4-1.5,5.2-1.4c7.2,0.1,14.3-0.8,21.5-0.5c1.4,0.1,2.7,0,4,0.4
			c0.4,0.1,0.6,0.5,1.2,0.3c5-1.9,10.1,0.3,15.1-0.2c0.7-0.1,1.9,0.4,2,0.9c1,2.7,3.7,3.9,5.1,6.3c0.6,1,0.9,1.8,0.9,2.9
			c0,4.3,0.3,8.6-1.4,12.8c-1.4,3.4-4.9,6.4-7.8,5.9c-4.1-0.6-8.2-1-12.3-1.4c-0.7-0.1-0.9-0.4-1.2-1c-0.6-1.1-1.5-2-1.8-3.1
			c-1.1-3.9-3.7-6.9-5.9-10.2c-0.7-1-0.7-2.3-0.7-3.5"/>
		<path class="st0" d="M331.7,100.1c0.4,0.9,0.2,1.7-0.2,2.6c-1.2,2.7-1.5,5.3,0.4,8.1c2.4,3.5,4.2,7.3,8.3,9.2
			c1.8,0.8,3.5,0.9,5.2,0c3.7-1.9,7.5-3.5,11.3-5c1.2-0.5,2.2-0.4,3.1,0.1c3.7,2.1,7.5,4,10.4,7.3c0.3,0.3,0.7,0.4,1.1,0.6"/>
		<path class="st0" d="M134.6,164.1c-2.6,2.9-5.9,5-8.6,7.8c-2.1,2.1-4.3,4.1-5.9,6.6c-0.9,1.3-2.3,1.7-3.6,2.1
			c-9.9,3.4-16.9,10.3-23,18.4c-0.8,1-0.2,1.6,0.1,2.1c0.6,1,1.9,1,2.8,0.7c2.8-1,5.4-2.4,7.8-4.2c1-0.8,1.9-1.9,3.3-2.1"/>
		<path class="st0" d="M328.6,167.9c1.6,4.7,0.6,6.9-4.3,8.7c-4.6,1.7-9.3,2.3-14.2,0.8c-5.7-1.8-11.4-3.6-16.6-6.8
			c-1-0.6-1.1-1.1-1.1-2"/>
		<path class="st0" d="M230,154c-2.4-1.9-5.5-1.9-8.3-2.5c-3.4-0.7-6.9-1.3-10.1-2.2c-4.4-1.3-8.9-2-13.3-3.2
			c-3.4-0.9-7-1.5-10.6-0.8c-2.6,0.4-5.2,0.4-7.8,0c-0.4-0.1-0.8,0-1.2,0c-10.3,0.3-20.5-0.7-30.7-0.5c-3.2,0.1-6.5-0.3-9.7-0.4
			c-1.1,0-1.9-0.5-2.1-1.4c-0.2-1.2-1.3-2.4,0.2-3.6c5.1-4.2,10.7-7.2,17.5-6.3c3.2,0.4,4.2-1.9,4.8-3.7c1.2-3.2,3.3-5.5,5.6-7.8
			c0.2-0.2,0.3-0.6,0.7-1.3c-1.8-1.5-3.4-3-6.4-2.4c-2.6,0.6-5.3,0.4-8,0.8c-7,1.1-12.4,4.8-17.3,9.7c-2.9,3-3.7,6.4-3.7,10.2
			c0,1.9,0.4,3.9,2.1,5.2"/>
		<path class="st0" d="M404,161.3c-0.6,0.2-1.2,0.2-1.6,0.5c-3.2,1.8-5.9,0.6-8.2-1.5c-3.5-3.1-7.6-3.6-11.9-3.2
			c-1.9,0.2-3.6,1.7-5.5,2.5c-5.5,2.2-11.1,3.7-17,4.1c-4,0.2-7.4-1.6-10.9-3.1c-1.6-0.7-3.5-1-4.6-2.8c-0.2-0.4-1.2-0.5-1.8-0.5
			c-2.2,0-4.5-0.2-6.6,0.3c-1.9,0.4-3.8,0.3-5.7,0.4c-1.6,0.1-2.4,0.7-3.4,2c-2,2.5-2.9,5.4-3.8,8.2c-0.8,2.8-2.3,4.2-5.1,5
			c-4.2,1.1-8.5,0-10.9-3.4c-0.1-0.2,0-0.6,0-0.9"/>
		<path class="st0" d="M406.4,154.2c-3.3-2-6.9-1.2-10.4-1.3c-12.8-0.4-25.6,0.3-38.3,1.9c-4.4,0.5-9,0.8-13,3"/>
		<path class="st0" d="M174.7,156.8c-2-0.3-3.7,0.4-5.5,1c-0.3,0.1-0.4,0.7-1.1,0.7c-5.3,0.2-10.4,4.8-11.1,10.1
			c-0.1,0.8,0,1.6,0.4,2.4c1.1,2.1,2.1,4.2,3.1,6.4c1,2.3,1.3,4.8,1.7,7.3c0.2,1.1-0.4,2-1.2,2.6c-0.7,0.5-1.4,0.4-2.4,0.1
			c-2.8-0.6-5.7-0.5-8.5-1.1c-3.2-0.7-6.3,0-9.5-0.6c-0.1,0-0.2,0-0.2,0c-5.4,1-11,0-16.3,2.1c-6.3,2.4-8.7,5.7-8.7,11.6
			c0,0.9-0.1,1.9-0.2,2.8"/>
		<path class="st0" d="M201.1,313.6c-1.9,7.3-3.9,14.5-5.6,21.8c-1.1,4.6-2.8,9.2-3.3,13.9"/>
		<path class="st0" d="M92.4,261.3c-0.3,1.3-1.3,1.9-2.3,2.6c-7.2,5-14.4,10-21.5,15.1c-2.5,1.8-5.2,3.1-7.9,4.6
			c-1.8,1-3.9,0.4-5.9,1.2c-4.6,1.9-9.3,3.3-13.9,5.1c-0.8,0.3-1.4,0.3-2.2,0.4"/>
		<path class="st0" d="M485.8,206c0.7-1.9,1.6-3.6,2.9-5.3c3.8-4.8,0.4-12.6-5.5-13.4c-5-0.7-9.9-2-14.9-2.7
			c-1.8-0.2-2.5-1.2-3.1-2.5c-0.5-1.1-1-2.2-1.4-3.3"/>
		<path class="st0" d="M60.2,210.9c0.6-3.2-0.8-6.3-0.7-9.5c0-2.5,0.5-2.8,2.8-3.9c4.2-2,7.2-0.7,10.7,1.9
			c9.4,6.8,19.2,13.2,28.8,19.7c0.6,0.4,1.3,1,1.2,1.9"/>
		<path class="st0" d="M418.9,114.7c-1.8-0.6-3.5,0.1-5.2,0.7c-5.8,1.9-10.6,5.3-14.9,9.5c-2.6,2.5-5.3,4.8-8.9,5.8
			c-2.3,0.6-4.6,0.7-6.9,0.1c-1.3-0.3-2.3-0.4-3.6,0.2c-2.3,1-4.8,1.1-6.6-1.1c-1.5-1.8-1.5-4.1-1.5-6.4c0-0.8,0.6-1.1,1-1.4
			c3.4-2.5,5-5.9,5-10.2c-0.1-3.1,0.8-6,2.1-8.7"/>
		<path class="st0" d="M76.3,242.2c-0.8-1-1.9-1-3.1-0.9c-3.6,0.3-7.1-0.3-10.6-0.6c-4.2-0.4-8.4-1-12.6-1.9c-1.9-0.4-4-0.4-5.9,0.6
			c-2.1,1.1-4.6,0.9-6.9,1.4c-4.5,0.9-9.1,1.5-13.7,2.2"/>
		<path class="st0" d="M248.8,124.9c0.6,1.6,0.9,3.2,1.4,4.8c0.9,2.9,2.9,3.9,5.3,5c2.7,1.2,5.7,1.7,8.3,3.2c3,1.7,6.5,1.8,9.9,1.9
			c1.5,0,3.2,0.2,4.7-0.6c0.7-0.4,1.6-0.5,1.9-1.4"/>
		<path class="st0" d="M221.5,128.9c-2.5,0.2-4.9,1.2-7.3,1.8c-6.1,1.3-12.3,1.5-18.5,1.2c-1.7-0.1-3-1.8-4-3.2
			c-2.4-3.4-4.4-7-6.2-10.8c-1.8-3.7-2.9-7.6-3.5-11.6"/>
		<path class="st0" d="M334,121.6c2.4,3.6,6.8,4.6,9.7,7.6c0.4,0.4,1,0.8,1.4,1.2c3.8,3.9,8.8,4.9,14,5.4c1.4,0.1,2.5,1.2,4,1.1
			c3.8-0.3,6-2.7,8-5.5c0.3-0.5,0.6-0.9,0.9-1.4"/>
		<path class="st0" d="M211.1,110.5c2.8,4.5,5.7,9,9.7,12.5c1.1,0.9,1.5,2,1.4,3.3c-0.2,3.4-0.4,6.8-0.7,10.2
			c1.3,0.7,13.9,0.3,17.6-0.6c1.1-2.6,0.1-5.3,0.8-7.8"/>
		<path class="st0" d="M208.2,158.5c-0.2,0.6-0.5,1.1-0.4,1.7c0.2,5.3-0.8,10.6,0.2,15.8c0.4,2.2-0.2,3.1-2.3,3.3
			c-4.5,0.4-9,1.2-13.5,1c-6-0.3-11.7-1.7-17.5-3.2c-2.2-0.6-4.7-0.7-7.1,0.3c-1.9,0.8-4.1,1-6.1,1.5"/>
		<path class="st0" d="M60,199.6c3.1,1.5,5.7,4,8.5,6c6,4.3,11.8,8.9,17.8,13.4c0.7,0.5,1.5,0.9,1.6,1.9"/>
		<path class="st0" d="M247,158c-0.6,2-1,4.1-1.9,5.9c-1.3,2.6-3.8,4.3-6.4,5.4c-6.3,2.7-12.6,3.3-18.6-0.9c-2.5-1.7-5-1.1-7.6-0.5
			c-0.9,0.2-1.9,0.4-2.8,0.5c-2,0.3-3.7-0.5-4.4-2.4c-1.1-2.6-3-4.6-4.6-6.8c-1.7-2.3-4.5-2.6-7.2-2.7"/>
		<path class="st0" d="M318.7,159.3c-1.6-0.7-3.4-0.6-4.9-0.2c-1.5,0.3-2.9,0.4-4.3,0.4c-7.9-0.3-15.8,0.8-23.6,0.5
			c-1.1,0-1.8,0.5-2.6,1"/>
		<path class="st0" d="M311.6,159.9c-1.6,3.9-4.3,5.8-8.7,5.8c-5.3-0.1-10.4-1.2-15.4-2.7c-1.8-0.5-2.6-0.3-3.9,1.4
			c-5,6.4-7.7,13.9-10.3,21.4"/>
		<path class="st0" d="M466.4,184.5c-1.7,1.4-2.7,3.4-4,5.2c-2.3,3.1-4.6,3.2-6.8,0.2c-1.3-1.6-2.7-3.3-2.2-5.7
			c0.1-0.3-0.4-0.8-0.7-1.2c-1.2-1.7-2.6-3-3-5c-1.2-3.2-2.3-5.9-4.6-7.7c-1.2-0.9-3.1-0.8-4.7-1c-3.1-0.4-6,0.5-9,1.2
			c-6.7,1.5-13.3,3.1-19.9,5c-0.4,0.1-0.9,0-1.4,0c-2.5,0.2-2.8-0.4-2.4-2.9c0.5-3.2,0.3-6.6-1.9-9.1c-1.6-1.8-1.9-3.5-1.1-5.5
			c1.5-3.6,1.3-4.8,6.1-4.7c5.4,0.1,10.7,0.5,16.1,1.2c1.7,0.2,3.5-0.1,5.2,0.1c3.1,0.2,6.1,0.9,9.2,0.6c1.1-0.1,1.9,0.4,2.8,0.6
			c1.2,0.2,2.3,0.2,3.3-0.3"/>
		<path class="st0" d="M312.5,99.1c2.7-1.2,5.5-0.8,8.3-0.6c1.3,0.1,2.7,0.2,4,0.3c1.8,0.1,3.6-0.2,5.5,0.6c1,0.4,2.5-0.2,3.7-0.1
			c5.2,0.4,10.4,0.3,15.6,0.8c3,0.3,6,0.4,9,0.5c1.8,0.1,3.6-0.2,5.2,0.7c0.3,0.1,0.7,0.3,0.9,0.2c4.3-0.9,8.5,0.2,12.8,0.6
			c5.2,0.5,10.4,0.8,15.6,1.3c6.1,0.6,12.1,1.6,18.2,2.3c3.7,0.4,7.5,1.1,11.1,1.5c4.1,0.4,8.2,0.9,12.3,1.5c3.4,0.4,7,0.1,10,2.3
			c1,0.7,2,0.1,2.8-0.5c1.4-1,2.8-1.7,4.5-1.9c4.7-0.5,6.2,1.3,8.5,5.7c1.1,2,1.4,4.3,1.7,6.6"/>
		<path class="st0" d="M184.6,106c1.7,1.4,3.8,0.8,5.7,0.8c5.8,0.3,11.7,0.8,17.5,1.3c1.1,0.1,1.9,0.7,2.6,1.4"/>
		<path class="st0" d="M340.6,19c1.1,1.5,3,1.8,4.5,2.6c6.4,3.2,12.7,6.7,18.7,10.6c0.5,0.4,1.1,0.9,1.9,0.7"/>
		<path class="st0" d="M426.7,123.9c-4.1,3.1-9.2,3.8-14,5.2c-2.3,0.7-4.7,0.6-7.1,0.4c-2-0.2-3.9-1.1-5.6-2.3"/>
		<path class="st0" d="M326,122.5c2.8,1.7,4.7,4.4,7.1,6.6c1.6,1.5,2.8,3.6,4.6,4.9c2.2,1.7,1.8,3.8,1.8,6c0,2.8,0,5.5,0,8.3
			c3.8,0.7,7.4,1.4,11.1,1.2c1.6-0.1,3.3-0.3,4.7-1.2c1.7-1,1.8-2.5,0.2-3.5c-3.1-1.8-5.5-4.5-8.7-6.3c-4.5-2.5-6.7-7.2-9.3-11.5
			c-0.3-0.5-0.7-1-0.2-1.7"/>
		<path class="st0" d="M451.3,128.9c2.1-2.3,2.2-5,1.2-7.8c-1-2.6-2.9-3.1-5-1.4c-2.9,2.4-3.4,5-1.4,8.5c0.7,1.3,1.3,2.7,2.6,3.5
			c0.8,0.5,0.5,1.3,0.9,1.9"/>
		<path class="st0" d="M59.3,284.5c-0.3,1.3-1.3,1.9-2.3,2.6c-2.5,1.7-4.9,3.7-7.6,5.2c-3.1,1.7-4.5,4.6-5.4,7.8
			c-0.1,0.5-0.3,1-0.5,1.4c-0.8,2-1.6,3.7-4.2,4.4c-3.4,0.9-6.5,2.6-9.7,4.1c-2.8,1.3-5.6,1.6-8.5,0.7c-0.4-0.1-0.9,0-1.4,0
			c-1.5-0.1-2.4-0.5-2.7-2.3c-0.5-3.1-1.4-6.2-2.3-9.2c-0.3-1.1,0.5-2.5-0.5-3.3c-1-0.9-2.5-0.7-3.8-0.7"/>
		<path class="st0" d="M177.3,150.8c-2.2-1.1-4.5,0-6.6,0.2c-3.7,0.4-7.3,1.7-10.9,2.8c-1.8,0.6-2.6,1.8-3.8,2.9
			c-3.2,3.2-6.6,6.3-8.7,10.4c-1.4,2.8-2.9,5.6-3,8.8c0,1-1.6,1.6-0.6,2.8"/>
		<path class="st0" d="M487,201.7c-0.9-2-0.5-4.3-1.3-6.4c-1.7-4.1-3.4-4.8-6.9-2.3c-2.5,1.7-4.9,3.4-7.6,4.7
			c-1.5,0.8-3.4,0.9-5.2,1.2c-3,0.6-6,1.6-9,0.7c-4-1.3-7.4-3.8-10.4-6.8c-2.5-2.4-4.2-5.2-5.7-8.2c-1.1-2.3-2.8-4.2-5.8-4.3
			c-1.5-0.1-2.7,0-3.8,1.2c-1.1,1.2-3.1,1.5-3.8,3.3"/>
		<path class="st0" d="M194,150.9c-1.3,6.3-2.7,12.6-4,18.9c-0.7,3.2-1.1,6.5-1.7,9.7"/>
		<path class="st0" d="M452.7,135.1c-1.6-1-3.4-1.4-5.2-0.7c-1.5,0.6-3.2,0.4-4.7,0.5c-5.8,0.5-11.7,0.5-17.5,1.4
			c-1.1,0.2-2.3-1-3.3,0.2"/>
		<path class="st0" d="M349.6,17.5c1,1.5,2.7,0.9,4,1.4c4.7,1.5,9.2,3.3,11.6,8.1c0.9,1.7,1.7,3.5,0.9,5.4c-0.4,1.2,0.6,1.9,0.7,2.8
			"/>
		<path class="st0" d="M338.7,141.2c-3.9,0.4-7.7,0.8-11.6,1.2c-2.1,0.2-4.1,0.3-6.1,0.7c-1.3,0.3-2.6,0.2-3.8-0.3"/>
		<path class="st0" d="M232.4,107.2c-2.8-1.7-5.8-3-9.2-2.6c-4.2,0.5-8.1,1.7-11.2,4.9c-0.9,1-2.3,1.5-3.5,2.2"/>
		<path class="st0" d="M252,109.5c-2.3-1.4-3.9-3.8-6.6-4.8c-2-0.8-6.9-1.7-9-1.1c-1.8,0.5-3.5,2.9-3.8,4.7
			c-0.5,3.3-0.6,6.5,0.3,9.7c1.1,4,3.7,7,6.6,9.7"/>
		<path class="st0" d="M446.1,135.3c0.6,2.3,0.3,4.6,0.6,6.9c0.7,4.3,0.8,8.7,1.2,13c0,0.4,0.4,0.8,0.6,1.2"/>
		<path class="st0" d="M146.1,265.1c-3.1,1.9-5.6,4.5-8.2,6.9c-6.2,5.6-12.7,10.9-18.9,16.6c-4.1,3.8-8.4,7.3-12.6,11.1
			c-0.9,0.8-1.9,1.5-1.9,2.8"/>
		<path class="st0" d="M142.3,145c-0.4,1.1-1.4,1.8-2.1,2.6c-0.9,1-2,1.9-2.6,3.1c-1.2,2.6-2.6,4.9-4.7,6.9
			c-2.4,2.3-1.1,5.6,2.3,6.3c1.8,0.4,3.6,0.5,5.4,0.7"/>
		<path class="st0" d="M143,178.1c-4.6-0.9-9.1,0.1-13.7,0.3c-2.5,0.1-5,0.8-7.6,1c-0.7,0.1-1.1-0.5-1.7-0.3"/>
		<path class="st0" d="M108.9,221.4c-1.2-3.8-3.3-7.1-4.8-10.8c1-1.4,2.9-2.1,4.4-3.1c1.9-1.3,3.9-2.4,5.5-4.2
			c1.2-1.4,2.7-1.3,3.5,0.2c2.7,5.5,5.3,10.9,7.1,16.8"/>
		<path class="st0" d="M181.5,145.9c-0.3,0.9-1.1,1.4-1.6,2.1c-3.5,4.4-5.3,9.5-5.9,15.1c-0.5,4.3-1.3,8.6-0.7,13"/>
		<path class="st0" d="M263.6,100.8c1.3,1.5,3.4,0.7,5,1.4c1,0.4,2.2,0.7,3.1,1.5c1.1,1,1.9,1.9,0.8,3.6c-0.9,1.2-1.2,2.8-1.3,4.4
			c-0.2,1.8-2.2,2.4-3.7,2.8c-3.9,1.1-7.5,3-11.1,4.8c-2.6,1.3-5.1,2.8-7.1,5c-0.4,0.4-0.8,0.3-1.2,0.5c-2.6,0.9-5.4,1.2-7.6,3.1"/>
		<path class="st0" d="M423.6,154.4c0.2,1.9-0.6,2.8-2.6,3.4c-4.6,1.3-9,3.1-12.1,7c-0.5,0.7-1.1,0.3-1.7,0.5"/>
		<path class="st0" d="M217.2,151.1c0.1,1.5,0,3,0.3,4.5c0.2,1.1,1.2,1.5,2.3,1.4c2.8-0.1,6.1-0.2,8.1-1.6c2.9-2,5.3-1.3,7.9-0.7
			c5.5,1.2,10.9,2.7,16.6,3.3c6.2,0.7,12.4,1.3,18.7,1.4c3.5,0,7.1,0.6,10.6,0.9c1.5,0.1,1.8,1.5,2.6,2.4"/>
		<path class="st0" d="M453.7,184c2.7,0.4,4.7-0.7,6.4-2.6c1.8-2,4.4-3.3,4.8-6.4c0.1-0.5,0.8-0.9,0.2-1.4c-1.3-1.1-1.8-2.8-2.9-4
			c-1.4-1.5-3.2-2.1-5.4-2.2c-3.6-0.2-7.1,0.9-10.6,1"/>
		<path class="st0" d="M292.2,117.6c1.6-1.3,0.9-2.9,0.4-4.2c-0.9-2.8-1.6-5.5-4.1-7.7c-2.8-2.4-5.4-1.6-8.1-0.3
			c-2.1,1-4.1,2.5-5.7,4.2c-0.9,1-1.9,1.9-3.3,1.9"/>
		<path class="st0" d="M422.4,107.9c-2.6,6.5-5,13.1-11.4,17c-1.8,1.1-3.7,2.3-5.9,2.3c-0.8,0-1.2,0.6-1.7,1"/>
		<path class="st0" d="M156.9,154.9c-1-0.6-2.1-0.4-3.1,0c-3.7,1.5-7.2,3.2-10.4,5.4c-2.3,1.6-2.8,3.2-1.9,5.9
			c-0.9,1.4-2,2.7-2.8,4.1c-1.1,1.8-1.1,3.7,0.2,5.4c0.4,0.5,0.7,1.1,0.9,1.7"/>
		<path class="st0" d="M44.1,215.4c1.3-0.7,2.3-1.7,3.2-2.7c2.2-2.3,4.8-2.7,7.6-2.8c3-0.1,5.5,0.9,7.6,2.9c2.5,2.3,5.6,4,7.6,6.8
			c0.5,0.6,1.3,1.3,2.3,1.2c5.1-0.2,10.2,1.1,15.4,0.3c1.3-0.2,2.7,0.8,4.2,0.7c3.4-0.2,6.8,0,10.2-0.2c3.4-0.2,6.9,0.3,10.4,0.1
			c3.8-0.2,7.6,0,11.4-1.1c1-0.3,2.1,0.7,3.1,0"/>
		<path class="st0" d="M212.3,109.8c0.4,0.2,0.8,0.5,1.2,0.4c2.4-0.3,4.3,0.6,5.7,2.4c1.6,2.1,2.4,4.5,2.6,7.1
			c0.1,1.2,0.7,2.5-0.4,3.5"/>
		<path class="st0" d="M287.9,133.9c-0.3,0.5-0.6,1-0.9,1.4c-2.3,3.2-4.6,3.6-7.8,1.4c-3.7-2.5-7.8-3.7-12.3-3.3
			c-1.8,0.1-2.9,1.4-4,2.6"/>
		<path class="st0" d="M409.7,106.2c-0.7,1.7-2.4,2.3-3.8,3.3c-3.6,2.8-7,5.7-9.6,9.5c-3.2-1-5.6-3-8.1-4.8c-2.1-1.5-2.8-1.6-4.7,0
			c-4.4,3.6-5.3,6.7-3.3,13.5c0.2,0.8,0.7,1.5,0.7,2.4"/>
		<path class="st0" d="M27.1,276.7c-0.7-0.4-1.4-0.5-2.1-0.5c-4.8-0.1-9.6-0.1-14.4-0.2"/>
		<path class="st0" d="M34.7,289.9c-4.2,2.1-8.2,4.6-12.8,6c-1.1,0.4-2.1,1.4-3.1,2.1"/>
		<path class="st0" d="M287.2,111.4c-2.7,3.9-2.1,8-0.7,12.1c1.8,5.2,6.4,6.7,10.9,8.2c2.3,0.8,4.7,1.1,7.1,1.7"/>
		<path class="st0" d="M470.9,198.2c3.1,2.1,6.8,2.5,10.2,3.7c1.7,0.6,3.3,1.5,5.2,1.5"/>
		<path class="st0" d="M69.7,219.9c-1,0.7-2.3,0.8-3.3,0.4c-2.5-0.9-5.1,0.1-7.7-1.2c-1.1-0.6-3.1,0.2-4.7-0.1
			c-1.2-0.2-2.4-0.2-3.6-0.5c-2.5-0.6-3.4,0.2-5,2.8c-2.2,3.7-4.5,7.4-6.9,11.1c-0.3,0.5-0.6,1-0.7,1.7"/>
		<path class="st0" d="M134.5,276c0.6,0.2,1.1,0.7,1.7,0.7c4.4-0.1,8.8,0.3,13.2-0.2"/>
		<path class="st0" d="M280.8,160.6c-2.1,3.3-4.7,6.3-6.9,9.7c-2.7,4.1-4.6,8.6-5.8,13.3c-0.3,1,0.1,2.2,0.2,3.3"/>
		<path class="st0" d="M244.9,165.3c1.3,3.4,3.7,6,5.7,9c3.3,5.1,8.3,8.4,12.9,12.1c2.2,1.8,4.4,1.3,6.4,0.5
			c2.5-0.9,5.2-0.5,7.6-1.6c6.4-2.7,11.7-6.7,14.5-13.4c0.2-0.4,0.6-0.8,0.9-1.2"/>
		<path class="st0" d="M159.3,129.3c4.7,1.3,9.4,1.1,14.2,0.4"/>
		<path class="st0" d="M427.4,154.9c3,4.6,4.7,10.1,8.5,14.2"/>
		<path class="st0" d="M463.1,172.2c-3.5-0.1-7,0.2-10.4,1.1c-1.2,0.3-2.1,0.9-3.1,1.5"/>
		<path class="st0" d="M43.7,276.7c-2,5-4.1,9.9-6.1,14.9"/>
		<path class="st0" d="M364.5,101.9c-0.3,0.5-0.6,1-1.2,1.5c-3.5,2.4-7,4.9-10.4,7.3c-0.8,0.6-1.6,1.2-2.6,0.2
			c-3.2-3.1-6.4-6.2-9.7-9.2c-0.4-0.4-0.5-0.9-0.7-1.4"/>
		<path class="st0" d="M288.4,127.2c-1.6,1.9-1.2,4.8,0.4,6.4c3.4,3.4,6.9,6.6,11.1,9c0.5,0.3,1.3,0.5,1.2,1.4"/>
		<path class="st0" d="M271.6,112.6c0.6,0.7,1.4,1,2.4,0.9c3.9-0.2,7.1,1.2,9.9,3.8c0.3,0.2,0.6,0.3,0.9,0.5"/>
		<path class="st0" d="M9.9,262.3c0.3,0.4,0.1,1,0.9,1.2c3.3,0.8,6.5,1.7,9.7,2.5c0.4,0.1,1,0.3,1.4-0.2"/>
		<path class="st0" d="M326.9,158.9c-2-0.9-4.1-0.5-6.1-0.4c-0.6,0-1.4,0.7-2,1.7c-2.6,4-6.4,6.8-11,8.4c-0.8,0.3-1.5,0-2.1-0.5"/>
		<path class="st0" d="M184.1,117.1c-2.1,3.5-2.8,7.5-4,11.4c-0.3,1-0.5,1.9-1,2.8c-1.2,2.2-1.8,4.6-1.6,7.1"/>
		<path class="st0" d="M14.8,296.5c1.7-0.4,3.4,0.5,3.9,1.7c1.9,4.2,4.6,8.1,6,12.5"/>
		<path class="st0" d="M46,238.4c-1.2-1.8-3.4-1.6-5-2.6c-2.2-1.3-4.5-1.4-7.1-0.9c-2.3,0.4-4.7,0.7-7.1,0.6
			c-2.8-0.1-3.4,0.8-3.8,3.5c-0.5,3.5,0.6,6.4,2.4,9.2c0.8,1.3,1.6,2.6,2.1,4"/>
		<path class="st0" d="M330.2,99.8c-3.3,3.5-7.5,5.6-11.8,7.6"/>
		<path class="st0" d="M445.6,156.3c1.3,3.7,1.7,7.3,0.6,11.1c-0.3,1-1,1.5-1.3,2.3"/>
		<path class="st0" d="M261.2,164.1c-2,0.7-3.1,2.6-5,3.6c-1.1,0.6-0.8,1.6-0.2,2.3c1.5,2,8.1,4.1,10.6,3.3"/>
		<path class="st0" d="M191.7,129.6c-3.8,0.9-7.6,0.5-11.3,0.2"/>
		<path class="st0" d="M30.9,286.6c-2.1,1.8-4.9,2.4-7.3,3.5c-2.7,1.2-5.3,2.5-8.1,3.5c-1,0.4-1.4,0.9-1.9,1.7"/>
		<path class="st0" d="M361.2,137.2c-1.2,1.3-3,1.1-4.5,1.4c-2.1,0.5-4.5,0.2-6.4,1.7"/>
		<path class="st0" d="M200.7,147.1c0,1.6-1.4,2.7-1.8,4.2c-0.5,2,0,4-0.6,5.9"/>
		<path class="st0" d="M250.6,131.5c-3.4,0.9-6.8,0.5-10.2,0.2"/>
		<path class="st0" d="M262.1,159.6c-0.3,2.8-0.9,5.7,0.2,8.5c0.2,0.4-0.3,0.8,0.5,1.2c2.8,1.5,4.4,4.8,7.8,5.4"/>
		<path class="st0" d="M383.4,103.4c-0.2,3.4,0.2,6.7,1.2,9.9"/>
		<path class="st0" d="M168.5,158.7c-0.1,3.7-0.2,7.4-0.2,11.1c0,2.2,0.2,4.4,0.7,6.6"/>
		<path class="st0" d="M165,120.9c0.5,0,1,0,1.4,0.5c3.5,3.4,6.8,7,9.5,11.1c0.4,0.7,1.1,1.3,1.6,1.9"/>
		<path class="st0" d="M10.1,257.5c0.7,1.4,1.9,0.6,2.8,0.7c2.7,0.3,5.3,0.9,8,0.5"/>
		<path class="st0" d="M211.3,149.7c-0.3,1.4-1.8,1.7-2.6,2.6c-2,2.1-1.8,4.2,0.5,6.2c2.2,2,4.2,4.4,6.2,6.6
			c0.3,0.4,0.3,1.1,0.5,1.6"/>
		<path class="st0" d="M462.6,121.3c-2.2,1.3-4.4,2.5-6.6,3.8c-0.8,0.5-1.6,1-2.6,0.9"/>
		<path class="st0" d="M108.2,193.7c-0.7,2.5,1.7,7.7,4.3,9c0.4,0.2,0.8,0.3,1.2,0.5"/>
		<path class="st0" d="M160,117.3c-0.7-1.7-2.6-2.2-3.7-3.4c-3.1-3.4-6-2.1-9.3-0.4c-3,1.5-4.3,3.9-4.2,7.1"/>
		<path class="st0" d="M424.8,125.8c0.4,0.5,0.6,0.9,0.3,1.7c-0.8,1.9-1.5,3.9-2.1,5.9c-0.2,0.7,0,1.6,0,2.4"/>
		<path class="st0" d="M52.4,210.7c0.8,2.6,3.5,3.8,4.8,6.1c0.4,0.6,0.9,1.1,0.9,1.9"/>
		<path class="st0" d="M103.5,211.2c-1.3,1.8-0.5,4-0.9,5.9c-0.1,0.6-0.3,1.3-0.5,1.9"/>
		<path class="st0" d="M255.8,103.6c-2.9-0.4-5.1,1.2-7.6,2.4"/>
		<path class="st0" d="M294.8,99.1c-0.5,3.2-3,5-4.7,7.3"/>
		<path class="st0" d="M188.4,145.2c-0.1,1,0.2,1.7,0.9,2.4c1.5,1.4,3.3,2.4,5.2,3.1"/>
		<path class="st0" d="M207.3,156.6c-1.9,1.3-4.3,1.7-6.4,2.6"/>
		<path class="st0" d="M130.4,241.9c1.9,1,3.1,2.9,5,4c2.6,1.5,5.2,3.1,8.5,2.6"/>
		<path class="st0" d="M245.8,120c2.3-0.6,4.6-0.9,6.9,0.4"/>
		<path class="st0" d="M29.2,271.5c-2.1-0.1-4.1,0-5.9,1.2"/>
		<path class="st0" d="M135.2,141c-1.8,1.2-4.1,2.1-3.5,5"/>
		<path class="st0" d="M220.5,151.6c-0.6,1,0.2,2,0,3.1"/>
		<path class="st0" d="M349.6,137.4c-0.6,0.6-0.5,1.4-0.5,2.1"/>
		<path class="st0" d="M217.7,112.8c-0.6,0-1.3,0-1.9,0"/>
		<path class="st0" d="M220.5,155.1c0,0.6,0,1.1,0,1.7"/>
		<path class="st0" d="M19.1,259.2c0.3,0.5-0.9,1.5,0.5,1.7"/>
	</g>
	<path class="st0" d="M280.5,160.8c-2.1,3.3-4.7,6.3-6.9,9.7c-2.7,4.1-4,11.6-5.2,16.4"/>
	<path class="st0" d="M208,157.5c-0.1,3.7,0.1,7.1,0.1,10.8"/>
	<path class="st0" d="M168.5,158.7c-4.6,1.9-11.6,6-11.7,9.8"/>
	<path class="st0" d="M121.3,242.2c-7.6,2.1-86.2,22.1-88.2,27"/>
	<path class="st0" d="M287.5,111.4c2.6,3.6,8.4,13.6,10.8,14.7"/>
	<path class="st0" d="M272.9,186.3"/>
	<path class="st0" d="M280.3,168"/>
	<path class="st0" d="M279.8,169.4c-2,3-5.4,13.2-6.6,16.5"/>
	<path class="st0" d="M134.3,186.2c-2.9,2.4-6.8,5.8-9.1,9.1"/>
	<path class="st0" d="M55.5,284.5c-10.7,4.2-8,2.2-18,7.4"/>
	<path class="st0" d="M75.6,210c6.9,4.3,8.2,7.7,12.6,11.1"/>
	<path class="st0" d="M104.2,212c1.6,3.3,3.4,6.2,5,9.5"/>

</g>
<g id="color3">
	<g id="color3_13_">
		<path class="st2" d="M24.1,243.9c1,0,1.9-0.8,3-0.6c0.9,0.2,1.8-0.6,2.8-0.6c1.2,0.1,2.5-0.8,3.8-0.5c1-1.3,2.6,0.2,3.6-1
			c0.1-0.1,0.5,0,0.7-0.1c0.9-0.2,1.9,0.3,2.8-0.5c0.7-0.6,1.9,0.3,2.8-0.4c0.8-0.6,1.9,0.3,2.7-0.7c0.2-0.3,1,0,1.4-0.1
			c0.6-0.1,1.2,0.2,1.9-0.4c0.4-0.4,1.3-0.4,1.9-0.1c1.4,0.6,2.9,0.9,4.3,1c1.4,0.1,2.8,0.5,4.3,0.7c1.4,0.2,2.9,0.3,4.3,0.5
			c1.6,0.2,3.1,0.6,4.8,0.5c1.5-0.1,3.1,0,4.6,0c0.2,0.6,0.2,0.9-0.1,1.1c-0.2,0.1-0.5,0-0.7,0c-1.1,0.2-2.2-0.3-3.3,0.5
			c-0.8,0.5-2.1-0.3-3,0.6c-1.5-0.4-2.8,0.7-4.3,0.5c-0.7-0.1-1.3,0.6-1.8,0.5c-1.2-0.2-2.2,0.8-3.3,0.6c-1.2-0.2-2.2,0.5-3.3,0.7
			c-2.1,0.4-4.2,0.7-6.2,1.5c-1,0.4-2.1-0.2-3,0.7c-1.9-0.2-3.7,0.9-5.5,1.2c-1.3,0.2-2.6,0.5-3.8,0.9c-1.5,0.6-3.3,0.6-4.7,1.3
			c-0.8,0.4-1.6,0.2-2.3,0.4c-1.6-2.5-2.5-5.5-4.3-7.8C24.1,244.3,24.1,244.1,24.1,243.9z"/>
	</g>
	<g id="color3_12_">
		<path class="st3" d="M145.9,113.4c-0.2,0-0.3,0-0.5,0c-1.7-8.4-1.3-16.8,0.2-25.2c2-10.7,6.4-20.4,12.5-29.4
			c10-14.7,22.5-26.7,38.3-34.9c7.8-4.1,16.3-6.2,24.8-8.3c13.7-3.4,27.5-5.7,41.6-6.9c4.9-0.4,9.9-1,14.8-1.3
			c3.8-0.2,7.6-0.6,11.3-0.4c4.4,0.2,8.9,0.9,13.3,1.7c22.8,4.1,43.8,12.6,63,25.5c0.7,0.5,1.4,1.5,2.2,1.1c0.8-0.4-0.7-1.2-0.6-2.2
			c0.1-0.7,0.3-2.2,0.2-2.8c-2.3-6.6-6.1-9.6-13-11.8c-1.2-0.4-2.8,0-3.7-1.2c3.8-1.5,11.2-0.4,15.1,0c10,1.1,19.3,4.1,28.4,8.4
			c10,4.7,18.9,11.1,27.6,17.8c7.9,6,14.1,13.5,18.6,22.5c2.3,4.6,2.9,9.7,4.8,14.3c3.8,9.1,3,18,0.7,27.1c-0.4,1.8-1.3,2.2-3,2
			c-2.2-0.4-4.5-0.7-6.8-1c-12-1.9-24-3.2-36-4.6c-9.7-1.1-19.4-2.1-29.1-2.8c-11.7-0.9-23.4-1.7-35.1-2.4
			c-7.4-0.4-14.8-0.8-22.2-0.9c-18.5-0.2-37-0.4-55.4,0.5c-3.1,0.1-6.1,0.2-9.2,0.5c-7.2,0.6-14.4,1.3-21.6,1.8
			c-5.4,0.4-10.9,0.5-16.3,1.1c-8.8,0.8-17.5,1.5-26.3,2.7c-9.3,1.2-18.5,2.6-27.6,5C153.2,109.9,149.2,110.8,145.9,113.4z"/>
	</g>
	<g id="color3_11_">
		<path class="st3" d="M286.2,243.5c0.9,0,1.9,0,2.8,0c2.1,0.8,4.4,0.4,6.6,0.6c16.1,1.3,32.3,2,48.5,2.7
			c16.4,0.7,32.9,1.2,49.3,1.5c16.7,0.2,33.3,0.5,49.9-1.7c1.2-0.2,1.6,0.1,1.9,1.4c1.2,6.8,1.4,13.7,0.4,20.5
			c-1.9,12.6-10.1,21.4-22.4,24.4c-6.1,1.5-12.4,1.1-18.6,1.4c-17.9,0.8-35.8,1.4-53.7,2c-14.8,0.5-29.7,1-44.5,1.4
			c-18,0.4-36,0.8-54,1c-20.2,0.3-40.5-0.6-60.6-2c-5.5-0.4-11.1-0.5-16.4-1.9c-8.8-2.2-16.6-6.1-21.8-13.9
			c-2.4-3.6-3.1-7.9-4.4-11.9c-2.1-6.4-3.5-12.9-3.2-19.7c0.1-2.1,0.8-3.3,3.2-3.3c7.6,0.1,15.2-0.2,22.8-0.4
			c16.8-0.4,33.5-0.6,50.3-1c17.2-0.4,34.5-0.3,51.7-0.7C277.8,243.9,282,244.2,286.2,243.5z"/>
	</g>
	<g id="color3_10_">
		<path class="st3" d="M118,290.6c4.1-4.5,10.9-9.5,15.3-13.6c1-1,1.5,0.4,2.9,0.4c4-0.1,6.9,0.2,10.8,0c2.4-0.1,2.8,0.6,3.8,2.6
			c3.1,4.8,6,8.1,10.7,10.9c0,0.2-1.4,0.7-1.4,0.9c-4.7,0.3-7.4,0.1-12,0.2c-8.9,0.2-17.2,0.5-26.1,0.7c-0.6,0-3-0.3-3.5,0.2
			c-1.2,0-1.7-0.4-2.8-0.3"/>
	</g>
	<g id="color3_9_">
		<path class="st4" d="M88.4,314.2c0-5.2-0.4-8.6-0.2-13.1c0-0.7,0.3-2.2,0.9-2.8c9.9-9.1,20-17.8,29.9-26.9
			c7.5-6.8,15.3-13.6,22.7-20.4c0.6-0.5,1.1-1,1.6-1.4c0.6,4.3,1.3,8.5,1.8,12.7c0.1,0.7,0.2,1.6-0.3,2.1
			c-9.4,8.6-19.4,17.1-28.9,25.7c-8.4,7.6-16,14.1-24.4,21.7C90.8,312.4,89.7,313,88.4,314.2z"/>
	</g>
	<g id="color3_8_">
		<path class="st3" d="M133.2,247.4c-1.1,0.1-1.4,0.6-2.6,1.2c-6.1,3-10.2,4.8-15.8,8.6c-12.9,9-23.7,19.2-33.1,32.3
			c-1.1,1.7-0.3,0.4-0.9,3.4c-0.4,1.7-1,3.3-1.3,5.8c-9.1,6.5-19.5,14.4-28.7,21.1c-2.8-3.2-7.3-7.1-9.2-10.6
			c2.8-2,59.3-44.1,88.5-66.4c1.9,0.6,3.3,3.1,4.8,3.6C135,247.1,133.2,246.8,133.2,247.4z"/>
	</g>
	<g id="color3_7_">
		<path class="st5" d="M91.3,262.1c-1.4,1.2-3.3,2.5-5.1,3.6c-4.7,3-8.9,6.5-13.6,9.4c-1.2,0.7-1.5,1.2-2.6,1.9
			c-2.6,1.7-7.9,5.5-10.6,6c-3.2,0.5-5,1-8,2c-3.8,1.3-8.3,4-12,5.4c-0.8-0.9,1.8-5.6,2-6.3c1.5-3.2,1.3-3.4,2.6-6.3
			c0.4-0.9,1.5-1.2,2.6-1.5c5.6-1.8,11.1-3.6,16.7-5.5c5.1-1.7,10.2-3.5,15.3-5.2c3.1-1,4.1-1.6,7.2-2.6c0.3-0.1,2.2-0.8,2.5-0.9
			c2.1-0.5,1.7-0.4,2.9-0.4C91.3,262.3,91.3,261.6,91.3,262.1z"/>
	</g>
	<path id="color3_6_" class="st6" d="M9,276.5c0.9,0,1.9,0.1,2.8,0c1.7-0.2,3.1,0.8,4.8,0.6c1.7-0.2,3.3,0,5,0c1.7,0,3.3,0,5,0
		c0.1,1.2-0.7,1.9-1.1,2.7c-0.3,0.6-0.5,1.2-0.4,1.8c0.1,0.6,0.8,0.7,1.1,1c1.3,1.4,3.1,2.2,4.3,3.7c-0.5,1.1-1.9,0.9-2.7,1.8
		c-3.3,0.8-6.1,2.7-9.3,3.7c-1.3,0.5-2.6,1.1-3.8,1.7c-0.9,0.4-1.9,1.2-2.7,0.9c-1.1-0.4-2.1-0.1-3.2-0.3C9,288.3,9,282.4,9,276.5z"
		/>
	<path id="color3_5_" class="st6" d="M23.6,310.8c-0.1-0.1-0.1-0.4-0.2-0.4c-1.7-0.8-4.1,0.1-5.5-1c-1.1-4.1-1.8-7.7-2.6-12.3
		c1.8,0.6,2,0.1,3.2,2.6c1.6,3.3,3.5,6.3,5.3,9.5c0.3,0.6,0.3,1.1,0.3,1.6C24,310.8,23.8,310.8,23.6,310.8z"/>
	<path id="color3_4_" class="st6" d="M15,295.8c0-0.7-0.3,0-0.3-0.8c2-0.9,3.9-2,5.9-2.7c0.4-0.1,0.6-0.5,1.1-0.7
		c1.3-0.6,2.6-1.1,3.9-1.6c1.7-0.6,3.2-1.5,4.9-2.1c1.3-0.5,2.1-0.5,3,0.5c0.2,0.2,0.6,0.2,0.8,0.3c0.1,1.2-0.9,1.4-1.6,1.6
		c-2.9,0.9-5.5,2.6-8.2,3.9c-1,0.5-2.4,0.9-3.4,1c-1,0.1-1.3,1.6-2.3,1.6c-0.9,0-1.4-1-2.2-1.2C16.1,295.6,15.8,295.8,15,295.8z"/>
	<path id="color3_3_" class="st7" d="M107.1,221c-2.3-0.1-1,0.2-1.3-0.1c-0.6-0.6-0.1-0.2-0.1-0.3c0.9-0.6,1.4,0.2-1.9,0.3
		c-1.8,0-1-1.7-0.6-3c0.3-1.1,0.3-2.5,0.4-3.6c0-0.7,0.2-1.8,0.3-2.3c0.7,0.9,0.5,0.8,1.2,2.1c0.4,0.7,0.6,1.2,0.8,2
		c0.1,0.3,0.5,0.5,0.5,1c0,0.4,0.1,0.6,0.5,1.1c2.4,3.5,0.1,2.4,1.6,2.5C108.3,221.5,108.5,221,107.1,221z"/>
	<path id="color3_2_" class="st7" d="M85.6,220.6c-0.6,0.4-1.4,0.4-1.9,0.1c-1.5-0.8-3-0.4-4.5-0.4c-1.2-0.1-2.4-0.2-3.6-0.3
		c-1.7-0.1-2.8-0.3-4-0.1c-2.7-2.7-1.2-1.6-5.1-4.9c-0.8-0.6-4.3-3.3-4.9-4.1c-0.6-0.8-0.6-3.7-0.8-4.7c-0.4-2.2-0.8-2.4-0.5-4.4
		c0.1-0.6-0.3-0.1,0.1-0.8c1.2-0.4,2.7,2.3,3.8,2.3c2,2,2.7,2,4.9,3.7c1.2,0.9,2.5,1.7,3.6,2.8c0.7,0.7,1.9,1.7,2.8,2.3
		c1.1,0.8,0.9,0.6,1.6,1.1c2.5,1.8,5.4,4,8,5.6C85.4,218.9,85.3,219.8,85.6,220.6z"/>
	<path id="color3_1_" class="st7" d="M57.4,218.3c-0.7,0.4-1.7,0.5-2.2,0.2c-1.2-0.7-2.4-0.3-3.6-0.5c-0.7-0.1-1.3,0.1-2-0.4
		c-0.6-0.4-1.6-0.2-2.4-0.1c-2.1,0.1-1.7-0.1-1.8-1.4c0-0.4,0.1-0.5,0.5-0.8c1.5-1,3-2,4.3-3.3c0.6-0.6,1.3-0.6,1.8,0
		c0.8,0.8,1.7,1.4,2.2,2.6c0.5,1,1.6,1.7,2.4,2.5C57,217.3,57.5,217.6,57.4,218.3z"/>
	<text transform="matrix(1 0 0 1 295.9561 54.4817)" class="st8 st9">3</text>
	<text transform="matrix(1 0 0 1 191.2119 78.1712)" class="st8 st9">3</text>
	<text transform="matrix(1 0 0 1 400.1064 81.6448)" class="st8 st9">3</text>
	<text transform="matrix(1 0 0 1 197.4775 273.6638)" class="st8 st9">3</text>
	<text transform="matrix(1 0 0 1 387.3389 272.0515)" class="st8 st9">3</text>
	<text transform="matrix(1 0 0 1 287.6494 272.658)" class="st8 st9">3</text>
	<text transform="matrix(1 0 0 1 137.1846 286.2976)" class="st8 st9">3</text>
	<text transform="matrix(1 0 0 1 115.0781 282.9803)" class="st8 st9">3</text>
	<text transform="matrix(1 0 0 1 60.5381 303.9334)" class="st8 st9">3</text>
	<text transform="matrix(1 0 0 1 52.4209 281.2996)" class="st8 st9">3</text>
	<text transform="matrix(1 0 0 1 15.3213 286.6092)" class="st8 st9">3</text>
	<text transform="matrix(1 0 0 1 20.9746 295.3562)" class="st8 st9">3</text>
	<text transform="matrix(1 0 0 1 17.1543 306.8855)" class="st8 st9">3</text>
	<text transform="matrix(1 0 0 1 38.1572 247.5174)" class="st8 st9">3</text>
</g>
<g id="color6">
	<path id="color6_1_" class="st10" d="M177.7,133c-0.6,0-0.9-0.4-1.1-0.8c-1.2-2.4-2.8-4.4-4.7-6.3c-1.8-1.7-3.5-3.5-5.2-5.3
		c-1.7-1.8-3.8-3.1-5.8-4.6c-1.8-1.4-3.7-2.6-5.6-3.9c-0.3-0.2-0.5-0.4-0.4-0.9c8.3-2.3,16.7-4,25.4-4.9c0.3,0.5,0.6,1,1.2,1.8
		c0.1,1.7,1.2,3.7,1.7,5.8c0.3,1,0.3,1.8,0,2.7c-1.1,3.5-2.4,7-3.4,10.6c-0.5,1.9-1.2,3.7-1.7,5.6C178,132.9,177.8,132.9,177.7,133z
		"/>
	<path id="color6_2_" class="st10" d="M129.5,135.2c0.2,0,0.5,0,0.7,0c0.5-0.4,0-1,0.4-1.4c0.3-0.3,0.3-0.8,0.4-1.1
		c0.3-0.6,0.4-1.4,1-1.9c2.4-2.4,4.6-4.9,7.5-6.7c2.5-1.5,5-2.7,7.7-3.8c4.5-1.8,9.2-1.5,13.9-1.5c1,0,2.2,0.3,3,1.4
		c-0.8,1.2-1.5,2.5-2.6,3.4c-1.1,1-1.8,2.3-2.4,3.6c-0.8,1.9-1.8,3.7-2.9,5.4c-1.8-0.9-3.8-0.7-5.5-0.4c-1.9,0.3-3.8,0.6-5.7,1.4
		c-2.9,1.2-5.6,2.6-8.2,4.5c-1.9,1.4-3.4,3.1-5.1,4.7c-0.4,0.4-0.8,0.6-1.3,0.5c0-1-0.7-1.9-0.6-2.9c0,0-0.3-0.1-0.4-0.2
		C129.5,138.6,129.5,136.9,129.5,135.2z"/>
	<path id="color6_3_" class="st11" d="M260.8,100.5c-3.7,0.8-8.9,3.1-12.6,4.5c-1.1-0.2-3.2-1.5-4.7-1.5c-0.8-0.8-1-1-1.7-2.1
		c1.7-0.4,1.5-1,3.1-0.9c0.5,0,3.9-0.4,5.6-0.4c3.8,0,6-0.4,9.7-0.4C260.3,100.1,260.8,100,260.8,100.5z"/>
	<path id="color6_4_" class="st10" d="M192.1,107.1c2,1,4,0,5.7,0.6c1.8,0.6,3.6,0,5.3,0.5c1.7,0.5,3.6,0.4,5.4,1
		c0.1,1.1-1.3,1.3-1.4,2.3c0.5,0.5,0.9,0.9,1.4,1.4c0.7-0.3,1.3-0.7,2.1-1.1c0.9,1.2,1.8,2.4,2.6,3.7c0.8,1.3,1.6,2.5,2.6,3.5
		c0.8,0.9,1.4,1.9,2.1,2.8c0.6,0.7,1.1,1.5,1.8,2.1c0.9,0.9,1.5,1.9,1.8,3.1c-0.3,0.6-0.7,0.8-1.3,1c-2.1,0.9-4.2,1.5-6.4,1.9
		c-1,0.2-2,0.6-3.1,0.5c-1.1-0.1-2,0.7-3.1,0.5c-1.1-0.2-2.2-0.1-3.3,0c-0.3,0-0.5,0.3-0.8,0.5c-0.6,0.1-0.8-0.7-1.5-0.5
		c-2.3,0.9-4.7,0.6-7.2-0.1c-2-1.9-3.5-4.3-5-6.9c-0.8-1.4-1.6-2.9-2.3-4.4c-1.6-3.1-2.8-6.4-3.8-9.8c-0.3-0.8-0.5-1.7-0.9-2.6
		c1.6,0,3.3-0.2,4.9,0.1c1.1,0.2,2.3,0.3,3.4,0.4C191.6,107.7,191.8,107.3,192.1,107.1z"/>
	<path id="color6_5_" class="st10" d="M239.4,126.3c-2.2-1.2-3.2-3.3-4.4-5.1c-1-1.4-1.7-3.2-1.7-5.1c0-0.8,0.2-1.6-0.5-2.2
		c0,0,0-0.2,0-0.2c-0.3-0.8,0.6-1.4,0.5-2.2c0-0.9-0.3-2,0.1-2.6c0.4-0.7,0.3-1.5,0.8-2.1c0.8-1,0.7-1.1,2.3-2.1
		c6.1-0.7,10.7,2.2,15.4,5.6c-1.8,3.8-4.7,6.9-7,10.6c0.5,0.4,1.4,0.2,2.3,0.1c1.5-0.1,2.2-0.6,4.3,0c-0.9,1.9-2.1,2.3-3.8,2.9
		c-1.8,0.7-4,1.8-5.8,2.4C241.1,126.4,240.2,126.1,239.4,126.3z"/>
	<path id="color6_6_" class="st12" d="M286,117c0.2,0,0-1.3,0.3-1.3c0.3-1.5,0.7-2.3,1-3.2c0.8-0.5,1.7,1.1,1.8,1.4
		c1.2,3,2.2,3.3,3.6,6.2c0.7,1.5,2.8,4,3.6,5.4c3-0.3,1.4,0.9,3.3,1.3c0.9,0.2,1.8,0.1,2.9,0.3c1,0.1,2.4,0.2,3.6,0.5
		c1.9,0.4,1.3,0.2,2.3,0.3c0.6,0.1,1,0.4,1.8,0.1c1-0.4,1.9-0.6,2.8-1.2c0.7-0.4,1.3-0.9,1.9-1.4c2.3-2,2.7-4.5,3.5-7.4
		c0.4-1.5,0.5-4.1,0.5-5.5c0-2.2-0.1-2.1-0.1-3.2c0-0.9-0.6-1.5,0.8-1.6c3.4-1.9,6.8-3.6,9.9-5.9c0.5-0.4,0.9-0.1,1.3-0.3
		c0.8,1.2,0,2.3-0.3,3.2c-1.4,3.5-2.6,7.1-3.7,10.7c-0.9,3.2-2.1,6.4-2.8,9.7c-0.5,2.3-1.6,4.6-2.4,6.8c-0.7,1.9-1.6,3.6-2.5,5.4
		c-0.9,1.8-1.8,3.6-3.3,5c-0.3,0.3-0.1,0.6-0.2,0.9c-0.3,0-0.5,0.2-0.5,0.5c-0.3,0-0.5,0.2-0.5,0.5c-0.5-0.1-0.9,0-1.2,0.5
		c-1.2,0-2.4,0-3.6,0c-0.3,0-0.7-0.5-0.7,0c-0.8,0-1.6,0-2.4,0c0-0.2,0,0,0-0.4c-1,0.3-1.7-0.4-2.7-0.6c-1.2-0.2-2.4-0.9-3.6-1.5
		c-1.2-0.6-2.5-1.3-3.6-2.1c-2.9-2.2-5.5-4.7-8-7.3c-1.1-1.2-0.8-3.1-0.3-4.8c1.1,1.2,2.6,2.1,4.4,2.9c1.9,0.8,4,1.7,6,2.1
		c2.1,0.4,3,0.8,5.3,1.2c0.9,0,0.6-0.5,0.8-1.2c-0.7-0.4-1.2-0.4-1.7-0.5c-2-0.5-3.5-0.6-5.4-1.3c-2.3-0.9-3.1-1-5.4-2
		c-1.3-0.6-3.9-2.1-4.4-3.2c-1-2.7-0.9-1.3-1.4-3.4c0-0.1-0.8-3.2-0.8-3.4c-0.2,0,0.2-1.2-0.1-1.2C286,117,286,118,286,117z"/>
	<path id="color6_7_" class="st13" d="M294.3,101.5c1.5-0.5,1.5-2.3,2.9-3c3.7,0,7.6,0,11.5,0c0.9,0,1.6,0.6,2.5,0.5
		c0,0.3,0.2,0.5,0.5,0.5c0.5,1,1.6,1.7,2.3,2.5c1.3,1.5,2.5,3.1,3.6,4.5c0.3,1.8-0.4,3.5,0.6,5c0,0.1,0,0.2,0,0.2
		c-0.7,3.4-0.4,6.9-2,10.1c-0.9,2-2.4,3.4-4.2,4.4c-0.4,0.2-0.8,0.6-0.8,0.6c-5.2-0.4-8.5-1.1-13.3-1.3c-0.6-1.6-3.6-4.7-4.7-6.3
		c0.4-4.8,0.6-8.2-2.3-12.4c1.3-1.4,1.9-3.3,3.4-4.5C294.4,102.1,294.3,101.7,294.3,101.5z"/>
	<path id="color6_8_" class="st10" d="M371.3,127c-0.5,0.3,0,0.3,0,0.5c0,1-0.1,1.6-0.1,2.6c-0.3-0.1-0.3,0.7-0.4,0.9
		c-1.6,2.5-2.5,4.3-5.6,4.3c-0.2,0.3-1.8,1.1-1.8,0.5c-1.5,0-1.5-0.1-3-0.1c0-0.3-1.3,0-1.3-0.5c-1.5,0.2-2.9-0.3-4.3-0.6
		c-1.5-0.3-3-0.7-4.4-1.2c-0.9-0.3-1.5-1.2-2.2-1.7c-2.4-1.6-4.5-3.5-6.6-5.4c-1.7-1.5-3.8-1.7-5.2-3.4c-1.2-0.2-1.3-1.7-2.2-2.2
		c-0.5,0.6-1.3-0.3-2-0.2c-1.4-1.2-2.1-2.9-2.9-4.5c-0.8-1.7,0.7-3.5,0.5-5.3c0.3-0.3-0.3-0.6-0.1-0.8c0.8,0,1.7,1.2,2.2,2.2
		c1.2,2.7,0.2,1.5,2.3,3.7c0.3,0,0.7,1.3,1.1,1.3c0.4,0.3,3.4,2.6,3.5,3.1c2.7,1.7,0.1,0.2,2.7,1c0.5,0.1,2.2,0.3,2.8,0
		c1.3-0.8,2.7-1,4.1-1.6c2.6-1.3,5.4-2.4,8.1-3.6c0.2-0.1,0.4-0.3,0.7-0.4c1.9-0.4,3.5,0.5,5.1,1.6c1.2,0.8,2.5,1.5,3.7,2.4
		c1.6,1.2,3.1,2.4,4.7,3.6c0,0.4,0.2,0.5,0.5,0.5c0,1,0,2,0,2.9C370.8,126.7,370.9,127,371.3,127z"/>
	<path id="color6_9_" class="st14" d="M351.3,110.9c-3.4-3.3-6.6-6.4-9.6-9.4c-0.7-0.1-1.1-0.1-1.5-0.2c-0.4-0.4-0.1-0.8-0.2-1.2
		c0.2-0.2,0.4-0.4,0.7-0.3c1.3,0.6,2.8,0.2,4,0.6c2.7,0.7,5.4,0.1,8.1,0.6c2.6,0.5,5.2,0.2,7.8,0.5c1.1,0.1,2.2,0.7,3.6,0.8
		c-1.4,1-2.7,2.1-4.2,3c-1.5,0.9-2.8,2.1-4.4,3C354,109,352.9,110.5,351.3,110.9z"/>
	<path id="color6_10_" class="st15" d="M411,106.6c0.3,0.2,3.2,0.5,3.5,0.5c2.5,0.3,4.6,0.7,7.1,0.9c-1,2.4-1.4,3.2-2,5.1
		c-4.3,0.6-6.9,1.4-10.7,3.7c-2.7,1.7-5.3,3.4-7.7,5.4c-1.9,1.6-3.5,3.4-5.4,5c-3.3,2.8-7.1,4.2-11.4,3.7c-1.1-0.1-2.4-0.5-2.9-1.8
		c0.2-1-0.7-0.7-0.5-1.7c-0.4,0-0.8-1.6-1-1.6c0-0.7,0-0.7,0-1.3c-0.2-1.6-0.2-2.5-0.2-2.8c0-1.1,0.1-0.6,0.3-1.7
		c0.2-1.2,0.3-1,1.3-2.6c0.9-1.2,1-1.1,1.6-1.6c1.1-1,1.9-2.1,3.4-1.7c3.1,2.8,6.6,4.5,10.4,6c0.8-1.8,1.6-2,2.6-3.5
		c0.7-1,2.1-2.5,2.9-3.1c1.8-1.2,3.3-2.6,5-3.9c1.4-1.1,0.9-0.7,2.3-1.8C410.3,107.2,410.3,106.5,411,106.6z"/>
	<path id="color6_11_" class="st16" d="M429.3,134.9c-4.1,0.6-3.8,0.8-5.6,0.3c0-1.2,0.4-2.6,0.8-3.7c0.5-1.9,1.3-3.9,1.8-5.8
		c0.1-0.4-0.2-0.6-0.2-1.1c-1.2-0.1-2.1,0.5-3,0.8c-3.1,1.1-6.1,2.3-9.4,2.9c-0.9,0.2-1.7,0.3-2.6,0.4c-0.9,0.1-1.6,0.2-2.7,0.2
		c-0.9,0-2.5-0.3-3.5-0.3c-0.4-0.3-0.4,0.1-0.5-0.4c0.6-0.4,3.9-0.9,5.1-1.6c2.6-1.6,5.1-3.2,7-5.8c2.2-3,4-6.6,5.6-9.9
		c0.4-0.8,1-1.6,1.1-2.8c1.9,0.2,3.3-0.2,5.1,0.7c0.3,0.1,1.2,0.1,1.5,0.1c1.1,0,1.7,0.1,2.7,0.4c0.9,0.3,2-0.3,2.9,0.5
		c0.1,0.1,0.9,0,1.2,0c1.9-0.3,3,0.1,5,0.6c0.4,0.1,0.9,0.4,1.5,0.6c1.2,0.8,1.2,0.4,1.7,1.3c1.2-0.7,1.3,0.2,2.4-0.6
		c1.5-1.2,3.3-2,5.1-2.2c3-0.3,5.1,0.8,6.6,3.5c0.9,1.8,1.6,2.4,1.9,4.3c0.2,0.9,1.1,2.8,0.6,4c-1.8,0.5-2.1,1.3-4,2.1
		c-1,0.7-2.5,1.2-3.2,1.8c0.1-3.9-0.7-4.6-2.8-6.6c-3.5-0.8-5.3,1.4-6.8,3.8c-0.7,4.3,1.2,7.3,4,10.2c0,0.3,0.1,0.6,0.1,0.9
		c-0.1,0.1-0.4,0.3-0.5,0.3c-4.1,0.2-7.5,1-11.4,0.7C434.2,135.4,431.7,134.7,429.3,134.9z"/>
	<g id="color6_12_">
		<path class="st17" d="M270,114.2c0.1-0.7,1.9,0.4,1.9-0.4c1.1,0,2.2,0,3.3,0c0.5,0.8,1.8,0.5,2.6,0.7c1.1,0.3,1.3,0.7,2.2,1
			c2,0.7,3.1,1.6,4.7,3.1c-0.4,1,0.1,2.8,0.5,3.7c0.6,1.4,0.9,3,2.3,3.9c0,0.3,0,0.6,0,1c-0.3,0.1-0.8,0.7-1,0.9
			c-0.6,2.5,0.7,3.1,0.7,5.2c-0.6,0.7-1.4,1.9-1.7,2.6c-0.3,0.7-1.3,0.7-1.6,1.4c-0.7,0-1.3,0-2,0c-2.1-0.8-3.9-2.3-6.2-3
			c-1.8-0.5-3.5-1.1-5.3-1.5c-2-0.5-3.7-0.3-5.4,0.6c-0.7,0.4-2.4,1.8-3.1,2.1c-1.4,0-1.5-0.6-3-0.6c-1.5,0-2.7-0.6-4-1.3
			c-1.3-0.7-1.8-0.7-2.7-1.7c-1.7-1.8-2.9-4.9-2.9-7.2c1.9-1.6,3.6-2.5,5.7-4c1.8-1.3,3.6-2.1,5.4-3.1c1.3-0.7,2.7-1.1,3.8-1.9
			c0.8-0.3,1.6,0,2.5-0.5"/>
	</g>
	<text transform="matrix(1 0 0 1 142.2686 129.6917)" class="st8 st9">6</text>
	<text transform="matrix(1 0 0 1 171.2324 118.0276)" class="st8 st9">6</text>
	<text transform="matrix(1 0 0 1 200.6689 124.8831)" class="st8 st9">6</text>
	<text transform="matrix(1 0 0 1 238.292 114.3626)" class="st8 st9">6</text>
	<text transform="matrix(1 0 0 1 304.4658 114.3626)" class="st8 st9">6</text>
	<text transform="matrix(1 0 0 1 310.8545 136.8704)" class="st8 st9">6</text>
	<text transform="matrix(1 0 0 1 349.3877 106.6184)" class="st8 st9">6</text>
	<text transform="matrix(1 0 0 1 353.1729 127.5989)" class="st8 st9">6</text>
	<text transform="matrix(1 0 0 1 387.3389 124.8831)" class="st8 st9">6</text>
	<text transform="matrix(1 0 0 1 431.6709 121.9134)" class="st8 st9">6</text>
	<text transform="matrix(1 0 0 1 268.5684 127.0393)" class="st8 st9">6</text>
</g>
<g id="Layer_8">
</g>
<g id="Layer_7">
</g>
<g id="color1">
	<g id="color1_1_">
		<path class="st18" d="M461.7,208c1.1,2.8,1,6,1.5,8.8c0.3,1.4,0.1,2.9,0,4.3c-0.1,1.4,1.2,2.6,1,4c-0.2,1.3-0.5,2.6-0.5,3.9
			c-0.6,0.3-0.2,1-0.4,1.4c-0.5,1.7-2.1,2.6-3.5,3.4c-0.6,0.3-1.5,0.3-2.1,0.7c-1.7,1.4-3.7,2.5-5.1,4.2c-1.3,1.6-2.6,3.1-3.7,4.9
			c-0.5,0.8-0.8,2-2,2.5c-0.3-0.7-0.6-1.3-1-2c-0.4,0.3-0.7,0.5-1.2,0.4c-0.5-0.1-1.3-0.2-1.6,0c-0.9,0.8-1.8,0.4-2.7,0.4
			c-1-0.1-1.7,0.7-2.7,0.5c-2.2-0.4-4.3,0.7-6.5,0c-0.3-0.1-0.7-0.1-0.9,0c-1.1,0.9-2.3,0.3-3.4,0.4c-1.2,0.1-2.3,0.6-3.6,0.5
			c-5.2-0.1-10.4,0-15.6,0c-5.3,0-10.6,0.1-15.9,0c-5.2-0.1-10.3,0.4-15.5-0.4c-2.5-0.4-5,0-7.6-0.1c-2.5-0.1-5.1,0.1-7.6-0.4
			c-2.5-0.4-5.1-0.2-7.6-0.1c-2.5,0.2-4.9-0.5-7.4-0.6c-2.9,0-5.8,0.5-8.6-0.4c-4.2,0.3-8.4-0.3-12.6-0.5c-2.1-0.1-4.2,0.4-6.2-0.4
			c-0.5-0.2-1.1,0-1.6,0c-0.6,0-1.1,0-1.7,0c-0.5,0-0.9,0-1.4,0c-0.5,0-1.3,0.3-1.6-0.2c-0.4-0.8-0.9,0.7-1.3-0.2
			c-0.1-0.2-1-0.1-1.5-0.1c-2.5-0.2-5.1,0.4-7.6-0.5c-3.4,0.3-6.7-0.4-10-0.5c-4.4-0.1-8.8,0-13.3,0c-4.5,0-9-0.1-13.5,0
			c-4.4,0.1-8.7-0.1-13.1,0.3c-4.9,0.5-9.8,0-14.7,0.1c-4.8,0.1-9.7-0.5-14.5,0.5c-1.3,0.2-2.4-0.6-3.6-0.5
			c-1.2,0.1-2.4-0.2-3.6-0.4c-1.8-0.3-3.6-0.2-5.4,0c-1.8,0.2-3.5-0.6-5.3-0.5c-1.8,0.1-3.7-0.1-5.5,0.4c-1.3,0.4-2.7,0.1-4.1,0.5
			c-1.4,0.4-2.8,0.2-4.3,0.5c-1.8,0.4-3.6,0.2-5.5,0.5c-2.6,0.3-5.2,0.2-7.8,0c-2.6-0.2-5.1,0.5-7.6,0.5c-6,0-12,0-18,0
			c-0.6,0-1.2-0.2-1.6,0c-1.6,0.9-3.4,0.2-5,0.5c-0.4,0.1-0.6-0.4-1.1-0.4c-0.2,0.5-0.4,1.1-0.7,1.9c-0.6,0.5-1.3,1.2-2.1,1.9
			c-0.6,0-1.3,0-1.9,0c0-0.1,0-0.2,0-0.2c-1.2-0.6-2.5-1-3.5-1.7c-1.1-0.8-2.2-1.6-3.3-2.4c-1.4-1-2.4-2.4-3-4
			c-0.8-2.5-1.7-5-1.6-7.7c0.2-3.5,0-7,0-10.5c0-0.5,0.2-1.1,0-1.4c-0.9-0.9,0-2.1-0.5-2.9c-0.7-1-0.3-2-0.4-3c-0.1-1.3,0-2.5,0-3.8
			c0-0.5-0.1-1,0.1-1.4c0.6-1.8,1.5-4.4,2.6-6.1c2,0.2,4-0.2,6.1,0.4c1.5,0.4,3.2,0.2,4.8,0.5c2.5,0.4,5,1,7.5,1.5
			c1,0.2,2,0.5,3.1,0.7c1.1,0.2,2.2,0.5,3.2,0.9c1,0.3,2,0.6,2.9,1c2.7,1.2,5.5,2,8.1,3.3c5.4,2.8,10.8,5.5,15.6,9.4
			c2.1,1.7,4.4,3.2,6.4,5.1c1.2,1.1,2.5,1.9,3.9,2.6c2,0.9,2,0.9,3.9,0.5c0.2-0.1,0.5,0.1,0.7-0.2c1.5-1.3,2-2.2,2.5-4.2
			c0.8-2.6,1.7-5.2,2.8-7.6c1.3-2.7,2.8-5.4,4.5-7.9c2.7-4,5.4-8,8.7-11.7c0.4-1.4,1.6-2.2,2.4-3.3c1.5-2.2,3.4-4.3,6-5.3
			c1.8-0.7,3.4-1.7,5.2-2.4c3.7-1.5,7.5-2.5,11.3-3.5c1.8-0.5,3.6-0.9,5.4-1.3c1.7-0.3,3.5-1.1,5.2-0.6c1.7,0.5,3.3,0.3,5,0.5
			c2.1,2.7,5,4.6,7.8,6.4c1.1,0.7,2.3,1.3,3.8,1.2c1.3,0,2.4-0.6,3.6-0.6c1.8,0,3.5-0.6,5.2-1.2c2.3-0.8,4.5-2,6.8-3.1
			c0.7-0.4,1.3-0.9,2.1-1.3c0.9-0.5,1.7,0.4,2.6,0.4c2.2,0,4.3,0,6.5,0.4c1.9,0.4,3.8-0.2,5.7,0.5c0.9,0.3,2.1,0.2,3.1,0
			c1.1-0.2,2.1,0.6,3.1,0.5c2.8-0.3,5.5,0.8,8.3,0.5c0.2,0,0.4-0.1,0.5,0c1,0.8,2.1,0.6,3.1,0.4c1.2-0.2,2.2,0.6,3.4,0.6
			c1.1,0,2.3-0.3,3.4,0.5c1.3-0.4,2.4,0.5,3.6,0.5c1.3,0,2.4,0.7,3.6,0.9c4.2,0.7,8,2.5,11.8,4.1c2.5,1.1,4.8,2.5,7.1,4
			c3.4,2.2,6.6,4.7,9.5,7.5c3,2.8,5.5,6.1,7.9,9.3c2.3,3.1,4.1,6.5,6,9.9c1.3,2.4,2.4,4.5,3.3,7.1c1.1,3,2.4,5.3,4.8,7.4
			c1,0.9,2.1,1.8,3.6,1.7c0.9,0,1.4-0.2,2.2-0.2c1.7-0.5,2.7-1.3,3.7-2.6c1.1-1.4,2.3-2.7,3.7-3.9c2.4-2.1,5.2-4.1,7.6-6.1
			c4-3.3,8.1-6.1,12.2-9.2c2.7-2,5.6-3.7,8.3-5.6c2.8-1.9,5.7-3.6,8.4-5.4c1.2-0.8,3.5-2,4.9-2.3c1.8,0,3.1,0.2,4.9,0.3
			c1.9,0.1,3.5-0.8,5.3-1.6c2.1-0.9,3.7-2.5,5.2-4.2c2.1,1.3,4.6,1.7,6.6,2.8"/>
	</g>
	<text transform="matrix(1 0 0 1 221.8916 223.7146)" class="st8 st9">1</text>
	<text transform="matrix(1 0 0 1 330.2383 216.5203)" class="st8 st9">1</text>
</g>
<g id="color7">
	<path id="color7_3_" class="st19" d="M180.7,129.2c0.7-2.3,1.2-4.6,1.9-6.9c0.4-1.2,1.3-3.6,2-4.6c0.6,1.1,0.7,1,1.1,2
		c1.1,2.5,2.4,4.8,3.9,7.1c0.4,0.6,1,1.6,1.6,2.3c0,0.2-0.3,0-0.5,0.1c-0.6,0.3-3.4,0.4-4.1,0.4
		C183.7,129.4,183.5,129.2,180.7,129.2z"/>
	<path id="color7_2_" class="st20" d="M153.7,112.8c1.7,1.2,2.2,2.1,4,3.2c0.4,0.2,1.2,1.1,1.6,1.3c0.3,0.4-0.2,0.1-0.7,0.4
		c-5.5,0.8-9.3,1.7-14.6,2.8c-0.7-0.4-1.1-1-0.5-2c0.4-0.7,0.7-1.4,1.2-2.3c1.9-1.5,2.8-2.5,5.2-3.1c0.5-0.1,1.2-0.3,2.3-0.6
		C152.5,112.4,153.4,112.8,153.7,112.8z"/>
	<path id="color7_1_" class="st20" d="M160.4,128.8c-0.3-0.3-0.4-0.1-0.6-0.2c0.1-0.2,0.5-0.9,0.5-1c1.4-2,1.8-2.6,3.1-3.9
		c0.5-0.5,1.8-2.7,2.4-1.9c1.7,1.2,3,3.1,4.5,4.6c0.7,0.7,1.6,1.6,1.9,2.7c-1.7,0.3-3.9,0.5-6.1,0.5
		C164.4,129.5,162.6,129.4,160.4,128.8z"/>
	<path id="color7_4_" class="st21" d="M241.8,101.5c-0.5,0.1-0.4,1.4-1.1,1.3c-1.4-0.1-3.1-0.1-4-0.1c-1.7,0.6-1.7,0.9-3.4,2.2
		c-0.2,0.1-0.3,0.5-0.8,1.3c-0.1,0.2-1.2-0.6-1.4-0.7c-2.6-1.7-5.5-2.1-8.5-1.7c-2.5,0.4-4.4,0.5-7.1,2c-0.9,0.5-2.3,1.3-3.1,2.1
		c-1.4,1.3-2,0.4-3.4-0.4c-0.4-0.2-0.9-0.2-1.4-0.2c-1.6,0-3.2-0.1-4.8,0c-1.8,0.1-3.5-0.8-5.4-0.6c-1.8,0.2-3.6,0.4-5.3-0.1
		c-1.7-0.5-4.6-0.6-6.2-0.8c-0.1-0.5,0.4-0.8,1-0.9c0.5-0.1,1.4-0.3,2.1-0.4c3.1-0.2,4.2-0.3,8-0.6c2-0.1,4-0.1,5.8-0.5
		c1.4-0.3,2.8-0.1,4.2-0.5c2.4-0.6,4.9-0.1,7.3-0.6c2.4-0.5,4.7-0.3,7.1-0.4c1.3,0,2.4-0.8,3.7-0.6c1.3,0.2,2.6,0.4,3.8,0.3
		c2-0.1,3.3-0.4,4.9-0.4c0.8,0,0.9-0.2,2.6-0.5c1.8,0,3.7-0.3,5.5-0.3C241.9,101,241.8,100.9,241.8,101.5z"/>
	<path id="color7_5_" class="st19" d="M222.4,120.5c-0.3-0.6-0.5-1.1-0.5-1.8c-0.2-2.7-1.7-5.1-3-7.4c-1.3-0.4-2.1-1.8-3.6-1.7
		c-0.8,0.1-1.2-0.3-1.5-1c1-0.6,2.1-1.1,3-1.7c0.3-0.2,1.1,0,1.1-0.7c0.5-0.2,1.3,0.5,1.5-0.5c1.8,0.3,3.5-0.9,5.3-0.5
		c2.7,0.6,5.1,0.5,7.5,2.8c-0.3-0.1-0.6,0.8-0.6,1.1c0,2.5,0,5.1,0,7.6c0,0.3,0.2,0.4,0.5,0.4c0.5,1.5,0.9,2.8,1.4,3.6
		c0.6,1.1,0,2,1.2,2.8c0,0.3,0.2,0.5,0.5,0.5c1.1,1.1,0.4,0.2,1.5,1.5c0,0.4,0.7,0.6,0.7,1.2c0.4,0,0,0.3,0.3,0.3
		c0,0.3,0.2,0.5,0.5,0.5c0,0.3,0.2,0.5,0.5,0.5c0,0.3,0.2,0.5,0.5,0.5c0,2.6,0,5.2,0,7.9c-1.4,0-2.7,0-3.9,0c-0.3,0-0.7-0.5-0.7,0
		c-1.5,0-3-0.1-4.6-0.1c-1.2,0-2.4,0.6-3.7,0.6c-1.3,0-2.6-0.7-3.9-0.8c0-0.8,0-0.6,0-1.1c0-0.3,0-0.7,0-1c0.3,0.1,0.5-0.1,0.5-0.4
		c0-4.2-0.8-6-0.8-10.2C222.2,123,222.8,120.5,222.4,120.5z"/>
	<path id="color7_6_" class="st20" d="M216.3,110.6c4.3,2.8,4.4,7.4,5.6,11.6c-0.8,0.6-1.6,0.3-2.2,0.3c-3.2-4-6.1-8-9-12.1
		C213,109.4,214.7,110.3,216.3,110.6z"/>
	<path id="color7_7_" class="st22" d="M293.3,98.8c1,1.4,0.5,2.6-0.4,3.7c-0.9,1-1.6,2.2-2.4,3.4c-0.5,0-1,0-1.6,0
		c-1.2-1.6-2.8-2.3-4.9-2c-0.7,0.1-1.4,0-2,0c-2.5,1.4-5.2,2.5-7.3,4.6c-2.6,2.9-2.7,2.3-2.1,0c0-0.9,0.3-1.8,0.2-2.8
		c-1.4-3.1-3.6-4.5-7.4-4.6c-1.3-0.6-1.9-0.9-0.6-1.4c0.5-0.9,1.8,0.3,2.1-0.9C275.6,98.8,284.4,98.8,293.3,98.8z"/>
	<path id="color7_8_" class="st23" d="M240.7,127.8c2.2-1.2,4.7-1.7,7.3-2.2c0.6,1.9,1.6,3.6,1.7,5.7c-3.1,0-6.1,0-9.1,0
		C240.7,130,240.7,128.9,240.7,127.8z"/>
	<path id="color7_9_" class="st24" d="M258.1,102c2.4,0,2.5-0.8,4.7-0.8c0.3,0,2.2,0.8,3.2,0.8c1.3,0.1,2.2,0.1,3.2,0.6
		c0.7,0.4,1.1,0.8,2,1.5c0.4,0.3,0.8,0.9,1.1,1.8c-1,3.5-0.2,3.9-2.6,6.7c-2.2,0.8-5,2.5-6.3,2.9c-2.2,0.7-4.3,1.6-6.1,3
		c-0.8,0.6-1.9,0.9-2.8,1.4c-0.2,0.1-0.5,0.2-0.7,0.1c-1.1-0.7-2.5-0.1-3.4-0.6c-0.9-0.5-1.7-0.2-2.5-0.4c-0.6-0.9,0.1-1.7,0.5-2.3
		c2.1-3.2,4.3-6.2,6.3-9.4C255.9,105.6,257.1,103.8,258.1,102z"/>
	<path id="color7_10_" class="st25" d="M272.6,111.8c0.5-0.9,1.4-1.9,2.3-2.4c0.4,0,0.5-0.2,0.5-0.5c0.4-0.1,1,0.3,1-0.5
		c1.7-1.1,3.5-2.1,5.3-3.2c1.4-0.8,2.7-0.9,4.1-0.9c0.4,0.2,0.3,0.5,0.3,0.9c2.3,0.2,3.4,2.1,4.5,3.7c1.4,2.1,2.4,4.7,2.1,7.4
		c-0.4,0.4-0.9,0.1-1.4,0.2c-2.6-3.2-3-6.5-4.5-5.8c-2.2,2.6-1.7,3.1-2.3,6.2c-1.4-0.4-2.5-1.6-3.8-2c-1.3-0.4-2.4-1.2-3.7-1.4
		c-1.5-0.3-3-0.1-4.4-0.1c-0.4-0.3-0.4-0.8-0.4-1.2C271.6,111.8,272.6,112.2,272.6,111.8z"/>
	<path id="color7_11_" class="st26" d="M277.3,139.2c-0.7,0-1.4,0-2,0c-1.3,0-2.5,0-3.8,0c-1.2,0-2.1-0.9-3.3-0.5
		c-1.4,0.4-2.5-0.9-3.8-0.5c-0.7-0.5-1-1-0.8-1.9c0.6-0.5,1.2-1.1,1.7-1.6c1.3-0.6,2.8-1,4.1-0.6c1.8,0.6,3.8,0,5.4,1
		c1.4,0.9,3.3,0.9,4.5,2.2c0,0.5,0,1.1,0,1.7C278.6,139.4,277.9,139.1,277.3,139.2z"/>
	<path id="color7_12_" class="st27" d="M343.4,148.8c0.1-0.3-0.1-0.4-0.4-0.5c-0.8,0-1.5,0-2.2,0c-0.3-0.3-0.4-0.4-0.7-0.6
		c0-3.6,0-7.4,0-11.1c-0.4-1-1.2-1.6-1.9-2.2c-4-3.6-7.2-7.8-11.2-11.5c-0.3-2.9,1.4-5.4,1.9-8.1c0.3,0,0.4,0,0.8,0
		c-0.3,2.1,0.8,3.7,1.9,5.3c1.4,2.1,2.7,4.2,4.2,6.3c2.1,3,4.3,5.8,6.1,9c0.5,0.9,1.2,1.6,2,2.1c3.9,2.6,7.5,5.6,11.4,8.1
		c0.5,0.3,0.7,0.8,0.5,1.6c-0.3,0.2-0.7,0.5-1.2,0.9c-0.4,0.5-1.3-0.3-1.6,0.7C350,148.8,346.7,148.8,343.4,148.8z"/>
	<path id="color7_13_" class="st28" d="M314.3,99.4c3.5,0,7.1,0,10.6,0c0.9,0,1.9-0.2,2.8,0.9c0.3,0.8-0.6,1.3-1.2,1.7
		c-2.2,1.4-4.5,2.7-6.8,3.8c-0.4,0.2-0.7,0.1-1,0.2c-1.3-1.7-2.4-3.7-4.3-4.9C314.3,100.6,314.3,100,314.3,99.4z"/>
	<path id="color7_14_" class="st29" d="M373.4,120.2c-1.1,1.1-1.4,1.7-2.3,1.7c-3.7-3.3-8.1-6.3-12.7-8.2c-0.7,0.6-1.8,0.7-2.7,1.1
		c-3,1.1-5.9,2.2-8.7,3.7c-1,0.5-1.4,0.5-3,1.4c-2.3-0.1-4.3-0.8-6.1-2.1c-2-1.5-3.6-3.4-4.7-5.6c-1-2-2.2-4-2-6.4
		c0.1-1.4,0.9-2.5,1.3-3.8c0.1-0.4,0.1-0.8,0.4-1.4c1.8,0.1,6.4-1.2,6.7,1c3,2.9,6.5,6.1,10.2,9.6c0.6,0.6,1.7,0.5,1.9,1.5
		c5.1-3.3,9.1-6.8,14.2-10c2.2-0.7,5.1-0.5,7.2-0.2c2,0.4,4,0.6,6.1,1.4c0.5,1-0.2,2-0.6,2.9c-0.6,1.2-0.8,2.4-0.8,3.7
		c0,1.7,0.3,3.4-0.5,4.9c-0.9,1.5-1.5,2.9-2.9,4.2C374,119.7,373.4,120.3,373.4,120.2z"/>
	<path id="color7_15_" class="st30" d="M325.8,123.6c0.4,0,0.5,0.2,1,0.2c1.4,1.8,3.7,3.7,5.3,5.4c1,1,2,1.9,2.7,3.1
		c0.4,0.7,0.9,0.8,1.7,1.6c0.2,0.2,0.5,0.5,0.6,0.9c0.3,0.8,0.6,0.2,1.4,1.5c0,1.4,0.2,2.7,0.2,4.2c-1.9-0.2-3.3,0.9-5.2,0.6
		c-1-0.1-1.7,0.6-2.7,0.5c-0.9-0.1,0.1-0.4-2-0.3c-0.1,0-2.3,0.4-2.5,0.5c-3.4,0.2-4.2,1.3-7.1,0.6c-0.1-0.1-0.3-0.3-0.4-0.4
		c-0.8,0.3,0.2-0.6,0.4-1c1.7-3.5,3.1-6.7,4.3-9.8c0.6-1.5,1.2-3.1,1.7-4.6C325.4,125.9,325.5,124.4,325.8,123.6z"/>
	<path id="color7_16_" class="st31" d="M338.4,127c0-0.9,0.5,1.1,0.5,0.5c0.2-0.3,0.4-0.2,0.7-0.3c1-0.2,2,0.2,2.5,0.7
		c2.3,2.2,5.2,3.6,7.2,5.7c3.5,0.8,7.5,2.2,11,3.1c0,0.3-0.6,0.2-0.6,0.6c-1,0.5-1.9,1-3.1,0.8c-1-0.2-1.9,0.3-2.9,0.5
		c-0.9,0.2-1.9,0.1-2.9,0.5c-1.2,0.5-2.7-0.1-3.7-0.9c-1.1-0.9-2-1.9-3.2-2.5c-1.2-0.7-2-1.8-2.8-2.8
		C340.4,131.8,339.4,127.9,338.4,127z"/>
	<path id="color7_17_" class="st32" d="M385,134c-0.9,0-1.9,0-2.8,0c-2.2,0-4.5,0-6.7,0c-0.3,0,0.9,0-0.8,0.3
		c-0.8,0.1-1.1,0.5-1.8,0.5c-0.3,0-0.5,0.2-1.4,0.4c-0.6,0-2.2,0.1-2.8,0.1c1.5-1.4,2.6-2.6,3.4-4c0.4-0.3,0.2-0.1,0.8-0.3
		c0.1,0.3,0.9,0.5,1,0.8c0.8,0.3,0.9,0.2,2,0.6c0.4,0.1,1.1-0.2,1.4-0.2c2-0.2,2.9-1,4.9-0.9c0.8,0.1,2.3,0.2,3.1,0.3
		c4.7,0.9,8.8-1.3,12.2-4.8c0.4,0,0.8,0,1.3,0c0.5,0.4,0.3,0.9,0.9,1.2c0.5,0.3,0.7,0.1,1.6,0.9c1.4,0.4,2.1,1,3.5,1.1
		c2.3,0.2,4.4,0.5,7-0.1c1.7-0.4,2.2-0.4,4.2-0.9c1.6-0.5,1.8-0.9,3.5-1.1c1.9-0.3,3.4-0.9,4.9-1.7c0,0.5-0.1,1.5-0.1,2
		c-0.8,0.6-0.5,1.8-1.2,2.4c-0.2,0,0,0.2-0.2,0.6c0,0.5-0.4,0.8-0.4,1.4c0,0.2-0.2,0.4-0.5,0.4c-1.7,0-3.4,0-5.1,0
		c-5.8,0-11.7,0.2-17.5,0.3"/>
	<path id="color7_18_" class="st24" d="M387.3,112.5c-0.7,0.1-1.5,0.4-2.3-0.1c-0.4-2.8-1.3-5.6-0.9-8.8c1,0.2,2-0.4,3,0.5
		c0.1,0.1,0.3,0,0.5,0c2.4-0.3,4.2,0.3,7.2,0.5c1.1,0.1,2,0.6,3.1,0.5c0.9-0.1,2-0.4,2.8,0.4c0.1,0.1,0.3,0,0.5,0
		c2.2-0.3,4.3,0.8,6.4,0.4c0.3,0.7,1.2-0.1,1.2,0.5c-2.2,1.5-5.2,4.5-7.4,6c-2.2,1.6-3.4,4.1-5.6,5.8c-1.7-0.5-3-1.8-4.6-2.6
		C389.5,114.7,388.6,113.8,387.3,112.5z"/>
	<path id="color7_19_" class="st33" d="M384.9,113.2c-1.4,0.8-2.4,1.6-3.3,2.5c-1.8,1.6-2.6,3.5-2.5,5.8c0.1,1.6-0.1,3.2,0.4,4.9
		c0.2,0.6,0.4,1.4,0.7,1.9c0.5,0.7,0.3,1.3,0.3,2c-2,0.8-4,1.4-6.2,0.5c-0.5-0.3-1.1-0.7-1.4-1.4c-0.2-0.6-0.6-1-1-1.7
		c0-1.3,0-2.7,0-4.3c3.6-2.2,5.8-5.9,6.1-10.3c0.1-3.6-0.1-6.5,3-10.1c0.2-0.1,0.8,0.1,1.3,0.1c0.2,0.2,0.5,0.5,0.7,0.7
		c0,1.1-0.4,2.4,0.1,3.3c0.7,1.1,0,2.2,0.6,3.2C384.4,111,384.2,112.2,384.9,113.2z"/>
	<path id="color7_20_" class="st34" d="M400.1,127c-0.5-0.4-0.8-0.8-0.7-1.3c0-0.1,0-0.2,0-0.3c0.2-0.3,0.5-0.5,0.8-0.8
		c3.4-2.7,6.5-5.6,10.5-7.3c1.7-0.7,6.3-3.9,8.3-4.2c-0.1,2.3-2.6,7.2-4.8,8.5c-0.9,0.5-1.7,1.2-2.4,2c-2.4,2.7-6.5,2.2-9.1,4.3
		C402,128.4,401,127,400.1,127z"/>
	<text transform="matrix(1 0 0 1 147.4424 119.2737)" class="st8 st9">7</text>
	<text transform="matrix(1 0 0 1 162.3662 128.3587)" class="st8 st9">7</text>
	<text transform="matrix(1 0 0 1 182.7715 128.1936)" class="st8 st9">7</text>
	<text transform="matrix(1 0 0 1 229.9883 105.8675)" class="st8 st9">7</text>
	<text transform="matrix(1 0 0 1 226.4893 123.1458)" class="st8 st9">7</text>
	<text transform="matrix(1 0 0 1 213.8906 118.0276)" class="st8 st9">7</text>
	<text transform="matrix(1 0 0 1 260.0127 112.3636)" class="st8 st9">7</text>
	<text transform="matrix(1 0 0 1 275.3838 104.5735)" class="st8 st9">7</text>
	<text transform="matrix(1 0 0 1 280.8223 113.4046)" class="st8 st9">7</text>
	<text transform="matrix(1 0 0 1 325.9834 136.8704)" class="st8 st9">7</text>
	<text transform="matrix(1 0 0 1 268.0127 138.7161)" class="st8 st9">7</text>
	<text transform="matrix(1 0 0 1 338.751 112.8255)" class="st8 st9">7</text>
	<text transform="matrix(1 0 0 1 371.2617 112.5852)" class="st8 st9">7</text>
	<text transform="matrix(1 0 0 1 344.6611 147.1096)" class="st8 st9">7</text>
	<text transform="matrix(1 0 0 1 375.5166 127.721)" class="st8 st9">7</text>
	<text transform="matrix(1 0 0 1 396.3701 132.3001)" class="st8 st9">7</text>
	<text transform="matrix(1 0 0 1 391.7021 111.7825)" class="st8 st9">7</text>
</g>
<g id="color5">
	<path class="st35" d="M139,171.3c0.8-1.8,1.7-3.5,3.3-4.7c-0.1-0.6,0.2-1.1,0-1.5c-0.9-2.1,0.1-3.4,2.3-4.5
		c0.5-0.2,1.2-1.2,1.7-1.5c2.6-1.3,3.9-2.6,6.9-3.2c0.6-0.1,1.8-0.2,1.9-0.7c0.6,0,1.2,0,1.8,0c0,0.4,0,0.9,0,1.3
		c-7,6.8-11.5,11.9-13.8,21.5c-2.2,0-3.1-1.6-4.6-2.8"/>
	<path class="st36" d="M272.8,185.6c-0.2,0.1-2.7,1.3-2.6,1.7c-0.5,0-1,0-1.5,0c0-2.8,1-6.4,2.4-9.7c1.3-3,2-5.6,3.9-8.3
		c1.3-1.9,3-4.2,4.6-5.9c0.9-1,1.3-2.3,2.5-2.9c0.9-0.2,0.8,2.3,1.6,2.1c-0.6,1.3-0.7,0.8-1.1,1.9c-0.9,2.2-2.6,3.4-3.4,4.8
		c-1.2,2.2-2,4.4-3,6.7c-0.9,2-1.9,4.2-2.5,6.3"/>
	<path class="st37" d="M207.6,177.9c-0.6-0.1-0.9,0.2-1.2,0.5c-2.9,0.4-5.5,1.4-8.4,1c-3.1,1-6.3,0.1-9.5,0c-0.7-1.6,0.7-3,0.3-4.6
		c1.1-0.9-0.1-2.3,1-3.2c0.1-2.9,1.3-5.6,1.7-8.4c0.1-0.8,0-2,0.5-2.6c0.6-0.9,0.2-1.7,0.5-2.5c0.1-0.1,0.4-0.7,0.6-0.8
		c0.5-0.4,1.5-0.1,1.9,0.1c4.3,0.3,4.4,1.9,5.8,3.6c2.4,2.9,3.5,5.3,5.8,8c0.5,1.6-0.2,4.3,0.4,5.9
		C207.6,175.7,207.8,176.7,207.6,177.9z"/>
	<path class="st38" d="M167.9,159.8c0,5.5,0.4,11.1,0.4,16.6c-2.4,0.9-4.7,1.3-6.9,1.7c-0.3-0.2-0.6-1.6-0.8-1.9
		c-1.1-1.9-1.6-3.5-2.7-5.4c-0.3-0.5-0.6-2.1-0.5-2.6c0.9-3.4,2.5-5.2,6.5-6.7C165.2,161,166.2,159.7,167.9,159.8z"/>
	<path class="st39" d="M261.3,165.1c0.3,0.3,0.6,0.6,0.9,0.9c0,1.1,0,2.3,0,3.5c1,1.2,2.6,1.6,3.8,2.5c0,0.4,0,0.8,0,1.1
		c-0.2,0.3-0.6,0.4-0.8,0.3c-1.6-0.4-3.2-0.7-4.7-1.4c-0.8-0.4-1.6-0.1-2.4-0.4c-0.2-1.2-1.6-1.2-2.2-2c0-0.4,0-0.8,0-1.2
		C257.6,167,258.8,165,261.3,165.1z"/>
	<path class="st37" d="M307.4,169.7c0.5,0,0.6-0.9,1.1-1c1.7-0.3,3.2-0.9,4.4-2.1c1.5-1.4,4-1.9,4.9-4c0.3-0.6,0.9-1.6,1.4-2.2
		c0.3-0.3,0.9-0.5,0.8-1c1.9-0.8,2.7-0.5,6-0.1c0,1.1-0.4,1.4-0.8,2.2c0.2,1.2-1.5,1.9-1.7,3.1c-0.4,2-1.3,3.6-2,5.7
		c-0.2,0.7-0.8,1.2-1.5,1.5c-0.9,0.4-1.8,0.9-3.2,1.6c-0.4,0.1-1.5-0.7-2.1,0.5c-1.3-0.9-2.7-0.6-3.9-1.4c-1.1-0.8-2.1-1.6-3.3-2.2
		C307.4,170,307.4,169.9,307.4,169.7z"/>
	<path class="st40" d="M465.2,174.4c-0.9,0.5-0.8,1.6-1.5,2.4c-0.7,0.7-1.4,1.5-2,2.2c-0.7,0.8-1.5,1.4-2.3,2.2
		c-0.9,0.9-2,1.1-3.1,2.2c-0.8,0-1.5,0.2-2.1,0.2c-3.4-2-3.5-5.5-4.6-8.5c0.9-1.1,2.3-1.1,3.6-1.4c2.3-0.6,4.6-1.2,7-1.3
		c1.9-0.1,3.5,0.5,5,1.5C465.2,174,465.2,174.2,465.2,174.4z"/>
	<path class="st41" d="M407.9,164.9c-0.9-0.7-2-1-2.3-2.2c-0.3-0.9-0.8-1.6-0.6-2.6c0.2-1.1,0.2-2.1,0.5-3.3
		c0.1-0.2,0.2-0.5,0.2-0.8c0.6-0.2,1.1-1.1,1.5-1.6c0.8-0.9,1.8-0.8,3-0.8c2.2,0.1,4.4-0.3,6.5,0.1c1.9,0.4,3.9,0.3,5.7,0.5
		c0.7,0.5,0.9,1.1,0.7,1.9c-2.7,1.3-1.2,0.7-4.2,1.6c-0.9,0.2-5.4,3.6-6.6,3.1c-0.5,0.9-1.3,1.1-2,1.9
		C409.6,163.5,408.6,164.1,407.9,164.9z"/>
	<text transform="matrix(1 0 0 1 454.5264 179.2425)" class="st8 st9">5</text>
	<text transform="matrix(1 0 0 1 409.2393 159.8772)" class="st8 st9">5</text>
	<text transform="matrix(1 0 0 1 316.29 169.3909)" class="st8 st9">5</text>
	<text transform="matrix(1 0 0 1 272.9404 176.927)" class="st8 st9">5</text>
	<text transform="matrix(1 0 0 1 257.9326 171.3938)" class="st8 st9">5</text>
	<text transform="matrix(1 0 0 1 195.6221 171.3938)" class="st8 st9">5</text>
	<text transform="matrix(1 0 0 1 161.4199 171.3938)" class="st8 st9">5</text>
	<text transform="matrix(1 0 0 1 143.248 166.7337)" class="st8 st9">5</text>
</g>
<g id="color2">
	<path id="color2_15_" class="st42" d="M252.1,177c-0.2,0.2,0.7,0.9,0.4,1.3c-1.5,0.7-5.2,1-6.8,1.4c-1.5,0.4-3.3,0.3-4.6,1.3
		c-2.3,0-4.4,1.1-6.7,1.5c-2.1,0.4-4.2,1.3-6.2,2.1c-1.5,0.6-3.1,1-4.4,1.8c-2.8,1.5-5.1,2.2-6.8,5.2c-0.7,1.2-1.8,2.1-2.7,3.2
		c-2.5,3.2-5,6.5-7.3,9.9c-1.6,2.4-3.1,4.8-4.5,7.2c-0.6,1.1-1.4,2.1-1.8,3.3c-0.8,2.2-1.8,4.4-2.5,6.7c-0.5,1.9-1.8,3.6-2.9,5.3
		c-1.9,1.4-3.5,0.3-4.7-0.9c-2.6-2.4-5.3-4.6-8.1-6.7c-2.1-1.6-4.4-3-6.6-4.5c-2.9-2-6-3.3-9-4.9c-3.2-1.7-6.5-2.8-9.8-4.1
		c-1.6-0.6-3.2-0.9-4.8-1.5c-1.6-0.6-3.2-0.9-4.8-1.3c-1.2-0.3-2.5-0.6-3.8-0.5c-0.9,0-1.5-0.7-2.4-0.6c-0.8,0.1-1.7,0.3-2.4-0.4
		c-0.1-0.1-0.3,0-0.5,0c-3.1,0.3-6.1-0.8-9.2-0.5c-0.8,0.1-1.7-0.4-2.4,0.4c-0.7-0.7-1.4,0.4-2.2,0.1c0-1,0-1.9,0-2.9
		c0.2,0,0.5,0,0.7,0c0.5-0.4,0.3-1.1,0.6-1.7c1.7-3.4,4-6.1,7.3-8c0.5-0.3,1-0.6,1.5-0.9c1.3-1,2.7-1.5,4.3-1.5c3,0.2,6-0.5,9,0.5
		c2.1-0.3,4.1,0.7,6.1,0.5c0.2,0,0.6-0.1,0.7,0c0.9,0.9,2.2,0.1,3.1,0.5c1,0.5,2.1,0.4,3.1,0.4c0.4-0.6,1.4-0.5,1.7-1.4
		c0.5-1.7,0.4-3.4,0.4-5.1c-0.9-0.8-0.3-1.7-0.4-2.6c1.9-0.3,3.6-1.2,5.4-1.1c0.4-0.7,1.1-0.3,1.7-0.5c0.5-0.2,1.1-0.8,1.6-0.3
		c0.7,0.6,1-0.4,1.6-0.1c0.5,0.2,1.3-0.2,1.7,0.5c2.1,0.1,3.5,0.8,6,1.6c1.6,0.5,3.3,0.9,5,0.9c1.8,0,3.4,0.7,5.2,0.5
		c3.3-0.3,6.6,0.1,9.9-0.4c2.7-0.4,5.3-0.8,8-1.2c0-3.2-0.3-7.1-0.3-10.1c1.6-0.7,3.8-0.7,5.4-1c1.7-0.2,3.1-0.3,4.8,0.1
		c1.7,1.3,3.4,2.2,5.3,2.9c1.5,0.5,2.9,1.2,4.5,1c0.8-0.1,1.3-0.7,2.2-0.5c2,0.3,3.9-0.4,5.7-1c2.8-0.9,6.2-1.8,7.9-4.5"/>
	<path id="color2_14_" class="st1" d="M329.6,174.3c-0.4-0.9,0.4-1.6,0.5-2.5c0.1-1-0.8-2.3-0.4-3.4c1.3-0.4,2.5,0.4,3.8,0.7
		c2.6,0.6,5.2,1.3,7.7,2c2,0.5,4,1.1,6,1.6c2.2,0.5,4.5,1.2,6.7,1.8c2.4,0.6,4.7,1.2,7.1,1.9c2.1,0.6,4.3,1.2,6.4,1.8
		c0.9,0.3,1.9,0.5,2.8,0.7c1.3,0.3,2.7,0.4,3.9-0.3c3.6-2.2,7.1-4.2,10.3-6.9c0.8-0.1,1.5,0.4,2.2,0.9c3.8,2.9,7.9,5.8,11.9,8.4
		c2.9,1.9,5.9,3.7,9,5.3c2.1,1.1,4.4,2.3,6.8,2.6c3.3,0.4,6.9-0.6,9.9-2.3c1.3-0.7,2.6-0.8,4.2-0.4c0.9,0.2,1.6,0.7,2.5,0.9
		c3.7,1.1,7.6,2.6,11.3,3.6c0.8,0.2,0.6-1,1.9,0.1c1.8,2.5,4.9,4.9,7,6.8c-0.7,1.1-1.9,1.6-2.9,2.3c-1.6,1.2-3.3,2.1-5.4,1.9
		c-1.2,0.8-2.7,0.7-3.8,0.4c-1-0.3-1.6,0.1-2.6-0.1c-1.2,0.6-1.9,1-2.7,1.4c-2.6,1.3-4.9,3.1-7.4,4.6c-3.2,1.8-6.2,3.8-9.2,5.9
		c-2.5,1.8-5.2,3.3-7.6,5.2c-1.6,1.3-3.5,2.3-5.2,3.6c-1.9,1.5-3.9,2.9-5.8,4.3c-2.6,1.9-4.9,4-7.2,6.2c-0.4,0.4-1,0.7-1.1,1.4
		c-0.1,0.4-0.9,0.4-1.3,0.8c-1,1.1-2.3,1.5-3.7,1.3c-0.7-0.7-1.9-0.7-2.5-1.5c-0.8-1.1-1.8-2.2-2.5-3.4c-1.4-2.6-2.3-5.5-3.5-8.2
		c-0.9-2.2-1.9-4.4-3.4-6.3c-0.6-0.8-1.1-1.8-1.6-2.6c-1.4-2.2-3-4.3-4.6-6.3c-2.6-3.3-5.6-6.1-8.7-8.8c-2.7-2.4-5.7-4.5-9-6.3
		c-2.3-1.3-4.7-2.6-7.1-3.6c-3.2-1.4-6.5-2.7-10.1-3.3c-2.1-1.2-4.7-0.8-6.9-1.8c-0.1-0.1-0.3,0-0.5,0c-2.3,0.3-4.5-0.8-6.7-0.5
		c-1,0.1-1.8-0.7-2.9-0.5c-0.9,0.2-2,0.3-2.8,0c-1.5-0.6-3.1-0.4-4.6-0.4c-1,0-1.8-0.7-2.9-0.5c-1,0.2-2.2,0.3-3.1,0
		c-1.5-0.6-3.1-0.4-4.6-0.4c-1.3,0.1-2.3-0.7-3.6-0.5c-1.3,0.1-2.6,0.3-3.8,0c-1.1-0.3-2.1-0.3-3.4-0.4c0.1-0.5,0.8-0.8,0.9-1.1
		c0.1-0.6,0.4-0.8,0.7-1.1c2-1.8,4.1-5,5.3-7.4c1.8,1.4,3.9,2.3,5.9,3.1c2.9,1.1,5.8,2.2,8.8,2.9c1.9,0.5,3.8,1.2,5.9,1.4
		c0.8,0.1,1.5,0.8,2.5,0.1c0.7-0.5,2.2,0.2,3-0.2c0.9-0.5,1.7-0.3,2.6-0.7c1-0.4,1.5-0.3,2.5-0.7c0.9-0.4,1.5-0.6,2.3-1.1
		C327.9,175.5,328.6,175.2,329.6,174.3z"/>
	<path id="color2_13_" class="st43" d="M42.3,305.2c1.4-1.8,1.3-2.2,2.1-4.1c0.6-1.5,2.1-6.1,3.6-7.1c3.8-2.6,4-2.5,7.8-5.2
		c3.1-2.2,1.7-2,4.8-4.3c2.4-1.8,10.7-6.3,13.1-8.1c4.1-2.9,8.1-5.9,12.2-8.7c3.3-2.3,6.6-4.6,9.8-7c3.1-2.4,6.4-4.5,9.5-6.9
		c3.6-2.8,7.4-5.4,11-8.1c2.2-1.7,4.9-2.8,7.2-4.4c1.3-0.9,3.3-3,4.7-3.8c0.8,0.5,1,3.5,1.5,4.5c-2,2.3-4.9,3-7.2,5
		c-2.4,2-4.9,3.8-7.4,5.7c-2.4,1.8-4.8,3.6-7.2,5.5c-2.4,1.8-5.2,3.5-7.5,5.4c-2.4,2-4.9,3.8-7.3,5.9c-2.3,1.9-4.9,3.5-7.2,5.5
		c-2.3,1.9-4.8,3.6-7.2,5.5c-2.4,1.9-4.9,3.8-7.4,5.7c-2.4,1.8-4.8,3.6-7.2,5.5c-2.4,1.9-4.8,3.8-7.2,5.7c-2.5,1.9-4.9,3.9-7.3,5.7
		c-2.4,1.8-3.2,1.4-5.7,3.2c-0.3,0-1.6,0.6-2,0.6"/>
	<path id="color2_12_" class="st43" d="M85.1,316.3c-1.1-1.3-3.7-5.3-4.1-7.5c-0.4-1.7,0.3-0.7-0.4-2.4c0-0.1,0-0.2,0-0.2
		c0.3-2,0.4-3.7,0-5.6c0-0.2,1.1-0.9,1.1-1.1c-0.2-1.7,0.3-3.3,0.7-5c0.1,0,0.2,0,0.2,0c1.4,1.4,3.3,2.4,4.1,4.2
		c0.8,1.6,0.3,3.4,0.3,5.1c0.1,3.9,0,7.7,0,11.6C86.6,315.3,85.4,316.3,85.1,316.3z"/>
	<path id="color2_11_" class="st44" d="M137.9,246.9c1.6,0.6,3,1.1,4.4,1.5c-0.9,1.3-2.4,1.9-3.5,3c-1.1,1.1-1.9,2.5-3.5,3
		c-0.1,0.1-0.2,0.2-0.4,0.3c-2,2.4-4.6,4.2-6.9,6.3c-3.3,3.1-6.8,6.1-10.2,9.2c-1.3,1.1-2.5,2.3-3.8,3.4c-3.5,3-6.9,6.1-10.2,9.1
		c-1.3,1.2-2.5,2.6-4,3.6c-2.3,1.5-3.7,3.9-6.1,5.2c-0.1,0.1-0.2,0.2-0.4,0.3c-2.2,2.6-3.8,2.9-6,5.5c-1.9-1.8-3.6-3.7-4.8-5.9
		c1.6-3,2.6-3.9,4.4-6.7c0.8-1.2,1.8-2.3,2.8-3.3c3.1-3.3,6-6.8,9.3-9.9c1-1,2.3-1.6,3.2-2.6c0.9-0.9,1.9-1.7,2.9-2.6
		c1.8-1.6,3.7-3.1,5.7-4.5c2.7-2,5.5-4,8.3-5.8c4-2.5,8.3-4.6,12.5-6.7c1.5-0.7,3-1.3,4.5-1.9C136.8,247.4,137.5,247.3,137.9,246.9z
		"/>
	<path id="color2_10_" class="st45" d="M146.1,266c1.3,3.3,2.3,6.6,3.3,10.1c-4.7,0-9.3,0-14.1,0c0.4-0.8,0.3-1.5,1.3-2
		c0.7-0.3,1.1-1,1.7-1.6c1-0.9,1.9-1.9,3-2.5c1.1-0.7,1.7-2.1,3.1-2.5C144.4,266.6,145.3,266.5,146.1,266z"/>
	<path id="color2_9_" class="st44" d="M127.6,236.3c-0.3,0.2-1.3,1.2-1.6,1.1c-2.5-0.3-4.4-0.1-6.8-0.2c-1.2-0.1-2.2,0.7-3.4,0.6
		c-1.1-0.1-2.3-0.4-3.4,0.4c0,0-0.2,0-0.2,0c-2.2-0.4-4.3,0.7-6.5,0.5c-1.1-0.1-2,0.7-3.1,0.6c-0.9-0.1-2-0.5-2.9,0.4
		c-0.1,0.1-0.3,0-0.5,0c-2.1-0.3-4.1,0.8-6.2,0.5c-3.6,0.9-8.2,1.2-11.8,1.2c-3.6,0.1-6.1-0.7-9.7-0.8c-2.7-0.1-5.5-0.7-8.2-0.5
		c-1.3-0.8-2.7-0.5-4.1-0.4c-0.9,0.1-1.4-0.6-2.2-0.6c-0.7,0.1-1.4,0-2.2-0.4c-0.9-0.4-2.1-0.3-3.1-0.5c-2.9-0.5-5.8-1.4-8.6-2.3
		c-1.2-0.4-2.2-1.2-3.5-1.3c-0.2,0-0.5-0.4-0.7-0.5c0.2-2,1.5-3.2,2.3-4.7c1.2-2.1,2.6-4,3.7-6.1c0.6-1.2,1.3-2.3,2-3.5
		c0.2-0.3,0.1-0.6,0.1-0.9c0.3,0,0.6,0,1,0c0.8,0.8,1.7,0.4,2.7,0.4c0.8,0,1.7-0.2,2.4,0.1c1,0.4,2,0.5,2.9,0.4
		c1.1-0.2,1.8-0.1,2.8,0c1.7,0.1,3.5,0.6,5.2,1c1.8,0.4,3.7,0.2,5.5,0.5c2.2,0.4,4.4,0.1,6.7,0.5c2.8,0.5,5.7,0.1,8.6,0.5
		c4.8,0.5,9.7,0.5,14.5,0.5c3.3,0,5.1-0.3,8.1-0.4c4.9,0.2,11-0.6,15.9-0.9c0.6,0,0.7,0.3,1.2,0c1-0.7,1.6,0.6,2.7,0.6
		c-0.4,0.4-0.1,0.5-0.1,0.9c0,3.4,0,6,0,9.4c0,0.8-0.2,2.2,0.5,2.6C127.6,235.3,127.6,235.8,127.6,236.3z"/>
	<path id="color2_8_" class="st44" d="M124.2,238.4c-1.2,1.4-1.6,2.2-2.9,3c-2.1,1.2-6.8,1.4-8.8,2.6c-0.9,0.6-2,0.3-3,0.5
		c-1.9,0.4-3,0.8-5,1.4c-2,0.5-4.7,1.7-6.9,2c-2.5,0.4-4.9,1.3-7.3,2c-1.6,0.5-3.2,0.7-4.8,1.1c-2.3,0.6-3.5,1.2-5.9,1.6
		c-1.7,0.3-2.5,1.1-4.3,1.3c-1.6,0.2-4.2,1.3-5.8,1.6c-3.8,0.8-3.9,1.4-7.7,2.3c-4.1,1-6.7,2.1-10.8,3c-2.6,0.6-4.8,2-7.4,2.6
		c-1.5,0.4-4.2,2.1-5.8,2.1c-0.6,0-5,3.6-5.7,3.3c-0.4,0.5-1.8,0.9-2.6,1.8c-1.5,0.3-3.6,0.3-5.1,0.9c-0.6-0.7-0.9-1.5-0.7-2.3
		c0.2-0.9-0.6-1.5-0.5-2.4c0-0.7,0.5-1.5-0.4-2.2c-0.1-0.1-0.1-0.4,0-0.6c0.2-1.5-0.6-5-0.6-6.5c0-0.2-0.4-1.1-0.5-1.4
		c2.5-0.9,2.9-1.8,5.5-2.4c2.4-0.6,5.3-1.4,7.7-1.9c1.6-0.3,3.3-0.7,4.8-1.2c1.6-0.5,4.5-0.5,5.9-1.4c2,0.1,4.9-1.2,6.9-1.4
		c2.8-0.4,5.1-1,7.8-1.5c1-0.2,2,0,2.8-0.3c0.9-0.3,2.2-0.4,3-0.5c2-0.4,2.7-0.2,4.7-0.6c1.1-0.2,4.6-1.4,5.6-1.7
		c1.1-0.3,2.1-0.1,3.1-0.4c1.1-0.3,2.3-0.1,3.3-0.4c1.1-0.3,2.3-0.1,3.3-0.4c1.3-0.4,2.6-0.1,3.8-0.4c1.2-0.3,2.4-0.1,3.5-0.4
		c1.3-0.3,2.8-0.1,4-0.4c1.4-0.4,2.8-0.1,4-0.4c1.4-0.3,2.7-0.1,4-0.4c1.4-0.3,2.8-0.1,4-0.4c1.4-0.4,2.8-0.3,4.3-0.3
		c1-0.1,2-0.5,3.1-0.4c1,0.1,2,0.1,3.1-0.3C120.5,238.3,123.1,238.4,124.2,238.4z"/>
	<path id="color2_7_" class="st46" d="M33.7,269.3c3-2,7.8-4,11.1-4.7c2.2-0.5,3.7-1,5.7-1.8c2.7-1.1,5.6-1.7,8.3-2.6
		c2.5-0.8,5-1,7.5-1.9c3.3-1.1,6.6-2.1,9.8-3.2c5.2-1.8,11.7-2.7,16.8-4.7c2.2-0.9,4.9-1.1,7.2-1.6c1.9-0.4,3.7-1,5.5-1.6
		c1.7-0.5,3.5-1,5.1-1.7c1.5-0.6,3.2-1.1,4.9-1.4c0.3,0.4,0.3,0.7,0,1c-3,2.4-5.8,5.1-9.3,6.8c-2.4,1.2-5.3,4.1-7.8,5.1
		c-7.3,4.9-5.2,2.2-13.1,4.4c-7.4,2.8-23.5,8.3-31,10.9c-2.9,1-5.7,2.2-8.6,3.4c-0.2,0.1-2.2-0.4-2.3-0.2"/>
	<path id="color2_6_" class="st44" d="M37.5,292.6c13.6-7.6,14.4-5.4,20.6-7.8c0.6,1.1-1.5,2.6-1.9,2.9c-1.9,1.2-4.7,2.2-6.5,3.7
		c-1.3,1.1-1,0.1-2.2,1.3c-0.3,0.3-1.2,1.5-1.9,2.3c-1.4,1.7-1.1,3.2-1.9,5.2c-0.4,1.1-0.9,2.3-1.4,3.6c-5.1,2.5-10.8,4.3-16.1,6.9
		c-1.4-0.9-5.5-8-7.3-12.8c0.8-1,3.5-1.8,4.7-2.3c2.9-1.1,5.4-2.9,8.2-4.2c0.9-0.4,1.8-0.8,2.6-1.4c0.7-0.5,1.3-0.5,2.2-0.5
		C37,290.1,36.9,291.9,37.5,292.6z"/>
	<path id="color2_5_" class="st46" d="M42.9,276.6c-2,4.8-3.8,9.4-5.7,14c-1.7-1.9-3.7-3-5.3-4.6c-1.7-1.6-3.7-2.8-5.2-4.9
		c1.2-3.8,2.9-8,5.4-11.4C36,272,39.1,274.3,42.9,276.6z"/>
	<path id="color2_4_" class="st47" d="M10.2,259.2c1.1,0,2.3,0.1,3.4,0c0.7-0.1,1.2,0.9,1.7,0.5c0.7-0.5,1.5-0.4,2.2-0.5
		c0.8,0,1.6,0,2.3,0c0.3,0.4,0.6,0.7,1.1,1.2c0,0.6,0,1.4,0,2.2c0,0.8,0,1.6,0,2.4c-1,0-2,0-2.8,0c-0.4-0.4-0.7-0.9-1.4-1
		c-1.6-0.3-3.2-0.9-4.8-1.5c-0.6-0.2-1.1-0.5-1.8-0.5C10.2,261.2,10.2,260.2,10.2,259.2z"/>
	<path id="color2_3_" class="st48" d="M92.5,222c-5.6-1.7-6.4-4.3-9.6-6.6c-3.1-2.3-6.2-4.7-9.3-6.9c-2.3-1.7-4.6-3.5-6.9-5.2
		c-2.1-1.5-3.3-2.3-5.5-3.7c-0.3-0.2-0.2-0.5-0.2-0.7c1.7-0.9,3.3-1.1,5-2.1c0.8-0.5,1.5,0.4,2.2,0.7c3.1,1.3,4.6,2.4,6.9,4
		c3.1,2.1,6.2,4.2,9.2,6.4c3.6,2.6,7.5,5,11.1,7.8c2.5,1.9,6.5,3.3,7.9,5.4c0.1,0.1,0.1,0.3,0.2,0.7c-1.8,0.4-3.7,0.1-5.5,0.2
		C96.2,222,94.3,222,92.5,222z"/>
	<path id="color2_2_" class="st48" d="M115.4,202.9c1.1,0,1.4,0.8,1.5,1.1c2.7,5.3,4.9,10.2,6.7,15.9c-1.6,0.7-3.1,0.8-4.6,0.8
		c-1.5,0-3-0.1-4.5,0.4c-1.4,0.4-3.1,0.1-4.8,0.1c-1.8-3.5-3.6-6.9-5.2-10.5C108.3,208.2,111.3,206.4,115.4,202.9z"/>
	<path id="color2_1_" class="st49" d="M39.1,235.4c1.3,0.7,2.1,1.2,3.3,1.6c0.9,0.3,2.8,0.1,3.1,1.8c-2.1,2.6-8.1,3-12.1,3.4
		c-0.9,0.7-2.1,0.9-3.4,0.8c-1.2-0.1-2.3,0.3-3.6,0.5c-0.8,0.1-1.3,0.9-2.5,0.1c0-1.9-0.2-3.7,0-5.4c0.6-0.2,0.3-1.1,0.8-1.6
		c2.1-0.6,3.1-0.8,4.8-0.6c1.5,0.2,3.2,0.1,4.9-0.4C36,235,37.6,235.5,39.1,235.4z"/>
	<path class="st47" d="M59.5,218.7c-1.3-1.3-1.6-1.5-2.4-2.8c-1-1.8-3-3.1-3.9-5.2c1.4-0.3,4.1,0.4,5.4,0.3c4,1.9,6.3,4.9,9.9,7.4
		c0.2,0.5,0.1,0.9,0.1,1.4c-0.8,0-1.4,0.1-2.3-0.4c-0.6-0.4-1.6-0.1-2.5-0.1C62.9,219.3,60.3,218.7,59.5,218.7z"/>
		<path class="st1" d="M365,33.3c-0.5-0.4-2.1-2.2-2.3-2.3c-2.6-1.6-3.1-1.7-5.6-3.4c-3.9-2.6-8.1-4.5-12.2-6.6
			c-0.8-0.4-2.1-1.1-3.4-2c0-0.1-0.3,0.1,1.1-0.7c1.8,0,4.6-0.5,6.3-0.5c0.3,0.5,0.8,0.6,1,1c1.1,0.6,1.9,0.2,3,0.6
			c2.9,0.7,4.5,1.6,7,2.9c4.3,2.2,6.4,7.6,5.8,9.5C365.5,32.6,365.3,33.9,365,33.3z"/>


	<text transform="matrix(1 0 0 1 176.6846 198.867)" class="st8 st9">2</text>
	<text transform="matrix(1 0 0 1 386.5244 199.5984)" class="st8 st9">2</text>
	<text transform="matrix(1 0 0 1 354.4639 25.6175)" class="st8 st9">2</text>
	<text transform="matrix(1 0 0 1 142.9775 274.617)" class="st8 st9">2</text>
	<text transform="matrix(1 0 0 1 111.7217 269.2556)" class="st8 st9">2</text>
	<text transform="matrix(1 0 0 1 81.9678 306.7517)" class="st8 st9">2</text>
	<text transform="matrix(1 0 0 1 60.5381 290.864)" class="st8 st9">2</text>
	<text transform="matrix(1 0 0 1 33.0332 301.6228)" class="st8 st9">2</text>
	<text transform="matrix(1 0 0 1 32.123 280.9344)" class="st8 st9">2</text>
	<text transform="matrix(1 0 0 1 65.5439 264.1922)" class="st8 st9">2</text>
	<text transform="matrix(1 0 0 1 46.5107 257.5271)" class="st8 st9">2</text>
	<text transform="matrix(1 0 0 1 15.5664 264.1922)" class="st8 st9">2</text>
	<text transform="matrix(1 0 0 1 57.4297 230.8689)" class="st8 st9">2</text>
	<text transform="matrix(1 0 0 1 29.25 241.3748)" class="st8 st9">2</text>
	<text transform="matrix(1 0 0 1 82.332 213.0232)" class="st8 st9">2</text>
	<text transform="matrix(1 0 0 1 112.4463 215.909)" class="st8 st9">2</text>
</g>
<g id="color4">
	<path id="color4_24_" class="st50" d="M456.4,192c0.8,0,0.6,0.5,1.7,0.7c1.4,0.2,1.8,0.4,3-0.8c1.7-1.7,4.7-5.9,5.6-6.8
		c1.5-0.5,3.5,1.2,5,0.8c2,0.4,2.1,0.7,2.7,0.5c0.8-0.2,0.9,0.2,1.6,0.3c2.4,0.4,6.7,1.6,9.1,2.2c1.4,0.4,2.2,1.3,3.4,3
		c0.2,0.9,0.8,1.8,1,2.6c0.5,2.7,0.8,1.4-0.1,5.1c-0.1,0.4-0.5,1.7-1.1,1.5c-0.2-1.2-1.2,1-1.3-0.3c-0.1-1.9,0.5-1.9-0.2-3.6
		c-0.4-1-0.4-1.4-0.8-3c-0.1-0.4-2-3-2.3-3.3c-2.5,0.5-5.5,1.3-7.5,2.8c-2.8,2.2-6.6,3.2-9.8,4.4c-2.7,1-2.5,1.4-5,1
		c-0.9-0.2-5-0.3-5.8-1c-1.8-1.6-4.2-1.1-6-2.7c-2.4-2.2-3-2.8-4.8-5.6c-0.6-0.9-2.4-3.2-2.8-4.2c-1.1-3.2-2.7-4.1-5.6-5.5
		c-1.2,0-2.6-0.2-4.1-0.2c-2.1,1.2-3.6,1.5-5,3.6c-1.5,2.3-4.5,2.9-7,3.8c-3.4,1.2-6.5,1.3-9.9-0.8c-5.1-3.1-10-4.5-14.8-8.3
		c-3.5-2.8-6.6-4.9-9.8-8.1c-0.3-0.3-1.8,0.3-1.9-0.3c-2.2,1.6-3.5,2.8-5.7,4.4c-1.7,1.2-3.4,2.5-5.2,3.6c-1.1,0.7-2.2,0.8-3.1,0.4
		c-1.9-0.8-3.8-1.5-5.7-2c-2.2-0.6-4.4-1.2-6.5-1.9c-2.9-0.8-5.8-1.7-8.6-2.6c-2.1-0.7-4.3-1.2-6.5-1.9c-2.9-0.8-5.8-1.7-8.7-2.6
		c-2.5-0.7-2-0.2-4.7-1c0.4,1.2-1.5,1.1-0.7,1.7c0,1.8,0,3.5,0,5.2c-1.5,2.6-4.8,3.4-7.1,4.5c-0.8,0.4-1.9-0.3-2.6,0.7
		c-1.5-0.2-3-0.4-4.4,0c-1.3,0.3-2.4-0.8-3.6-0.6c-1.6-1.3-3.4-0.7-5.1-1.5c-1.7-0.8-3.4-1.7-5.3-1.9c-2.9-2.2-4.4-2.6-7.7-4.8
		c-0.3,0.6-1.1,1.3-1.3,1.9c-2,5.2-3.4,6.2-7,9.1c-3.7,2.9-7,4.3-10,5c-0.4,0.1,0.6,0.3,0.2,0.3c0-0.9,0-1.9,0-2.8
		c0.9-1.2,1-1.8,1.4-3.3c1.3-4,0.9-5.7,3.7-9.5c1.6-2.2,2.9-4.8,4.8-6.7c1.7-1.7,0,0,0.4-0.5c6.4,2.1,11.4,3.1,18.3,2.8
		c1.6,1.4,1.7,1.9,2.7,3c0.7,0.8,0.8,2.1,1.6,2.8c3.6,2.9,5,2.6,9.4,2.7c1.2,0,2.4-0.9,3.4-2c1.1-1.1,1.8-2.3,2.2-3.7
		c0.7-2.3,1.1-4.8,2.4-6.7c0.5-0.7,0-2.4,0.9-2.4c2.8,0.1,2.3,0.3,2.8-1.1c2.9,0.4,6.3-1,9.7-0.6c0.1,0,1.2-0.5,1.3-0.5
		c2-0.2,1.6-0.5,2.9,0.3c3.6,2.4,7.5,4,11.3,6c0.9,0.5,2.6,0.8,3.7,0.9c2.7,0.4,4.9-0.4,7.5-0.8c2.6-0.4,5.2-0.5,7.6-1.6
		c2.5-1.1,4.5-1.4,6.9-2.8c0.3-0.2,2.1-1.1,2.4-1.4c1.7,0,1.7-0.3,3.4,0c2.3,0.4,3.8-0.9,5.6,1.2c0.6,0.7,3,1.2,3.6,2
		c0.6,0.7,2.3,1.3,2.9,2.1c2-0.3,4,0.2,5.8-1.6c1.2,0.4,1.4,0.3,1.9,1.5c1.4,3,2.1,6.2,1.9,9.6c-0.1,1.3,0,1.5,0,2.6
		c0.3,0.4,1.1,0.8,1.3,1c2.8,0.4,4.8,0,7.4-1.1c1.5-0.7,3.5-0.7,5.1-1.2c2.2-0.7,4.1-1,6.4-1.5c1.8-0.4,3.5-0.9,5.3-1.4
		c1.3-0.4,2.6-0.8,3.9-1c2-0.2,4.1-0.6,6.3,0.3c1,0.4,2,0.5,2.9,1.2c1.6,1.2,2.9,2.3,3.2,4.5c1.3,1.3,1,5.2,3.6,8.1
		c1.2,1.3-0.3,0.7,0.2,2.4"/>
	<path id="color4_23_" class="st51" d="M484.2,202.7c-1.1-0.8-2.4-1.2-3.7-1.6c-2.6-0.8-5.6-1.6-8.2-2.9c-0.1-1.2,3.9-3,4.9-3.6
		c2.2-1.2,0,0,2.2-1.2c2.3-1.3,1.8-1.1,3.5-0.7c1.7,1.1,2.3,3.5,2.5,5.1c0.2,1.5,1.1,3.4,1.1,4.9
		C485.8,202.7,484.9,202.7,484.2,202.7z"/>
	<path id="color4_22_" class="st51" d="M464,179.2c0.3,1.2,1.3,2,1.3,3.3c1.2,1.1,0.4,2.3-0.3,2.9c-1.6,1.7-2.5,4.1-4.7,5.5
		c-0.8,0-1.8,0-2.8,0c-2.1-1.5-3.2-3.6-4-6.3c2.5,0.2,4.2-0.9,5.9-2.3c1.1-0.9,2.2-1.8,3.3-2.8C463,179.2,463.4,179.3,464,179.2z"/>
	<path id="color4_21_" class="st52" d="M427.9,184.8c1.6-1.4,3.4-2.2,4.7-3.7c1.3,0,2.5,0,3.5,0c3.6,1.6,4.9,4.7,6.4,8
		c-2.7-0.5-4.9-1.6-7.4-2.1C432.8,186.6,430.5,185.6,427.9,184.8z"/>
	<path id="color4_20_" class="st53" d="M345.9,157.4c1.8,0.1,3.5-0.4,5.1-0.9c0.6-0.2,1.3-0.2,1.9-0.1c0.7,0.2,1.1-0.7,1.8-0.6
		c1.1,0.1,2.3,0.2,3.3-0.5c2.4,0.4,4.7-0.9,7.1-0.5c1.3,0.2,2.3-0.8,3.6-0.6c1.1,0.2,2.4,0.3,3.5,0c3-1,6.1-0.1,9-0.6
		c0.5,1,1,1.9,0.7,3.1c-3.3,2.3-7.2,2.8-10.7,4.6c-2-0.1-3.8,1.3-5.8,1.1c-1,0.9-2.3,0.1-3.2,0.7c-1.1,0.7-2.1,0.3-3.1,0.4
		c-2,0.1-3.9-0.6-5.7-1.4c-2.3-1-4.6-1.9-6.7-3.4c-0.2-0.1-0.5,0-0.7,0C345.9,158.2,345.9,157.8,345.9,157.4z"/>
	<path id="color4_19_" class="st54" d="M410.4,175.3c-0.8,0-1.2,0-2.2,0c0-1,0-1.7,0-2.6c0-0.9,0.3-1.9,0.2-2.8
		c0-0.4,0.5-1.6-0.2-1.6c0-0.6,0-1.4,0-1.9c2-1.2,2.1-2.9,4.2-4c2-1,3.8-2.2,6-2.8c2.2-0.6,3.4-0.9,5.5-2.4c0-1.5,0.2-1.3,0.8-2.3
		c0.3-0.4,0.8-0.1,1.2-0.2c1.2,1.5,2.5,2.9,3.3,4.7c1,2.1,2.1,4.2,3.1,6.3c0.7,1.4,1.9,2.3,3,3.5c-1.8,0.4-3.4,1-5.2,1.3
		c-2.5,0.3-5,1-7.5,1.6c-2.5,0.7-5,1.2-7.4,1.9C413.7,174.3,412.1,174.8,410.4,175.3z"/>
	<path id="color4_18_" class="st53" d="M427.9,155.1c0.6-0.7,1.4-0.6,1.7-0.3c1,0.7,2,0.5,2.9,0.4c3.2-0.2,6.4,0.8,9.6,0.6
		c0.9-0.1,1.8,0.6,2.8,0.4c1.9,3,1.8,6.2,1.7,9.3c-0.6,1.1-1.1,2.2-1.7,3.3c-0.3,0.2-0.8,0.4-1.2,0.6c-2-1-4.3-0.2-6.8-0.6
		c-1.1-1.2-2.7-2.5-3.8-4.2c-0.7-1.1-0.9-2.4-1.5-3.5C430.6,159.1,429.4,157,427.9,155.1z"/>
	<path id="color4_17_" class="st50" d="M404.6,153.9c0.4,0.4,0.6,0.6,0.8,0.8c-0.3,1.9-1.6,3.6-1.5,5.7c-0.7,0.4-1.4,0.7-2.1,1.1
		c-1.8,0.8-2.7,0.9-4.5,0c-1.2-0.5-2.3-1.1-3.2-2.1c-1.6-1.8-3.7-2.3-5.9-2.8c-2.1-0.5-4.1,0.2-6.3,0.1c-0.9-0.6-1.1-2-0.8-3.1
		c3.9,0,12.2,0.2,16.1,0.1C401.2,153.4,400.8,153.5,404.6,153.9z"/>
	<path id="color4_16_" class="st55" d="M449.1,174.5c-1.3-1.3-1.7-2.9-2.7-3.9c0-0.4-0.8-0.3-0.8-0.7c0.4-1.1,7.2-2.3,10.9-2
		c2.4,0.2,4.5,1,6.1,2.7c0,0.5,0,0.8,0,1.3c-2.4-0.4-4.6,0.5-6.9,0.6C453.4,172.5,451.2,173.9,449.1,174.5z"/>
	<path id="color4_15_" class="st54" d="M208.2,154.7c1-2.5,2-2.7,3.9-4.4c0.8,0.2,2.8,0.4,4.5,0.8c-0.5,1.3-0.2,1.3-0.3,2.3
		c0,1.1,0.8,1.8,0.8,3.1c1.4-0.2,2.1,1.3,3.5,1.3c2.3-0.1,3.9-0.4,6.1-0.9c1.2-0.3,2.2-1.4,3.3-1.8c1.3-0.5,2.8-1.2,4.2-0.1
		c1.6-0.1,3,0.6,4.5,0.9c2,0.4,4.3,0.7,6.3,1.3c0.4,0.1,0.7,0.7,1.2,1.1c-0.4,2-0.7,4-1.8,5.7c-1.8,3-5.3,4.4-8.6,5.4
		c-3,1-6.2,1.1-9.3,0.9c-0.7,0-1.4-0.4-2.1-0.7c-4.9-2.2-8.4-5.9-12.6-9.1C208.7,158.5,207.5,154.3,208.2,154.7z"/>
	<path id="color4_14_" class="st56" d="M270.3,175.6c-1.4,3.8-2.5,8.5-2.3,12.8c-6.6-2.4-15.6-11.2-22.2-22.2
		c-0.7-3.1,0.9-5.6,1.6-8.5c0.6-0.1,1.3-0.3,1.9,0.2c0.1,0.1,0.3,0.2,0.4,0.2c2-0.4,3.9,0.8,5.9,0.5c2.1-0.2,4,1.1,6.2,0.3
		c0.3,1.2-0.9,2-0.3,2.9c-2.2,2.4-4.3,4-6.7,6.1c0.3,2.1,1,3.5,2.7,4.5c2.4,1.5,5.1,1.4,7.9,1.9
		C267.1,174.7,268.4,174.5,270.3,175.6z"/>
	<path id="color4_13_" class="st57" d="M262.8,159.4c2,0.2,3.9-0.1,5.8,0.5c1.5,0.4,3.1,0.1,4.7,0.1c1.9,0,3.9,0,5.8,0
		c0.2,0.7,0.1,1.2,0.1,1.7c-3.2,3.7-5.5,7.8-8,12c-0.8,0.3-1.4,0.2-2.2-0.5c-1.5-1.2-3.1-2.3-4.8-3.3c-0.6-0.3-0.9-0.9-1.4-1.3
		C262.8,165.7,262.8,162.7,262.8,159.4z"/>
	<path id="color4_12_" class="st50" d="M310.7,160.8c-1.1,1.2-2.3,2.3-3.5,3.6c-7.7,1.6-15.1-0.2-22.6-2.9c0.4-0.5,0.5-0.8,0.6-0.8
		c7.2,0.4,14.4-0.9,21.7-0.5c1.2,0.1,2.4,0,3.6,0C310.5,160.5,310.6,160.7,310.7,160.8z"/>
	<path id="color4_11_" class="st58" d="M200.3,157.9c-0.4-0.4-0.6-0.5-0.8-0.8c0-1.3,0.1-2.7,0-4c-0.2-2.3,0.9-4,2.5-5.6
		c3,0.2,5.7,1.5,8.8,1.7c-0.5,1.1-1.1,1.8-2.3,2.1c0,1.2-1.4,1.6-1.9,2.6c-0.5,0.9-0.1,2-1,2.7c-0.8,0.4-1.7,0.8-2.7,1.3
		C202.1,157.9,201.2,157.9,200.3,157.9z"/>
	<path id="color4_10_" class="st59" d="M309.1,167.7c-1.1,0-2.4,0-3.7,0c-0.4-0.8,0.2-1.2,0.6-1.4c2.6-1.2,2.6-1.2,4.4-3.4
		c0.9-1.1,1.9-2,3-3c1.5,0.5,3-0.7,4.6-0.4c0,0.7,0,1.2,0,1.7C315.5,163.9,312.8,166.3,309.1,167.7z"/>
	<path id="color4_9_" class="st60" d="M225.4,152.9c1.5-0.2,3.4-0.4,4.6,0.6c-0.2,1.4-2,1.8-2.7,2.2c-0.8,0.4-1.8-0.1-2.8,0.4
		c-0.8,0.4-2,0.1-3.1,0.1c-0.3-1.2,0.3-2.7-0.8-3.7c1.4-1,2-0.6,3.3-0.5C224.1,152.4,224.7,152.8,225.4,152.9z"/>
	<path id="color4_8_" class="st61" d="M186.4,145.4c1.4,1.8,4.4,4.1,6.8,5.1c-1.9,9.5-3.7,19-5.6,28.5c-1.4-0.3-2.5-0.6-3.7-0.9
		c-2.5-0.5-5-0.9-7.4-1.7c-0.9-0.3-1.7-0.1-2.5-0.3c0-3.4,0-6.8,0-10.2c0.7-0.8,1-1.8,1-2.8c0-1.4,0.6-2.7,0.8-4
		c0.3-1.7,1-3.3,1.6-4.9c0.6-1.8,1.6-3.3,2.6-4.7c1-1.4,2.1-2.7,3.2-4C184.2,145.4,185.3,145.4,186.4,145.4z"/>
	<path id="color4_7_" class="st51" d="M189,145.7c2.7,0,6.2,0,8.8,0c0.9-0.2,1.3,1.2,2.3,1.3c-1.3,3.2-2.9,5.8-2.2,9.2
		c-1.3-0.3-1.6-0.6-4.2-0.3c-0.1-1.4,0.4-1.5,0.8-2.6c0.4-1-0.2-2.3,0.6-3.3c-0.3-0.6-0.5-0.2-1.1-0.4c-1.4-0.6-2.6-1.4-3.9-2.2
		C189.8,147.3,189.1,146.1,189,145.7z"/>
	<path id="color4_6_" class="st62" d="M207.3,167.2c-0.8,0-1.2,0-2.2-2.6c-1-2.1-2.8-3.1-3.3-5.4c1.2-1.3,4.1-1.1,5.6-1.9
		c0.2,0.2,0.1,0.9,0.4,1.2C207.7,160.8,207.3,164.5,207.3,167.2z"/>
	<path id="color4_5_" class="st63" d="M208.4,160.9c0.3-0.3,0.2-1.6,0.4-1.7c0.8,0.5,1.5,1.1,1.9,1.9c0.3,0,0.7,1.2,1.2,1.2
		c1.4,1.7,2.4,2.7,3.5,4.3c-2.2,0.5-4.7,1.5-6.9,1.3C208.4,165.6,208.4,163.3,208.4,160.9z"/>
	<path id="color4_4_" class="st53" d="M114.2,202.2c-0.3,0-0.6,0-1.2,0c-2.3-2.4-4.3-4.4-5.6-7.7c-2.2,1.8-3.4,3-5.7,4.4
		c-2.3,1.4-4.6,2.8-7.6,2.7c-0.3-0.7-0.1-1.5-0.2-2.1c1.2-0.7,1.8-2.2,2.6-3.3c0.9-1.2,1.9-2.3,2.8-3.5c2-2.6,3.7-2.9,5.9-5.2
		c0.8-0.9,1.9-1.5,2.8-2.1c3.1-2,6.2-4,9.9-4.8c1-0.2,1.2-0.4,2.1-0.8c0.9-0.4,2.7-0.3,3.6-0.2c0.9,0.1,1.5-0.7,2.5-0.6
		c0.7,0.1,1.6,0.4,2.2-0.4c0.1-0.1,0.3-0.1,0.5,0c2.9,0.4,5.7-0.6,8.5-0.6c1.1,0,1.9,0.7,3,0.6c1-0.1,2-0.2,3,0.5
		c0.3,0.2,0.7-1.4,1.3-1.4c-0.2-1.9,0.6-2.1,0.6-4c0-1.2,0.6-2.4,1-3.5c1.1-3.1,1.6-2.5,3.5-5.1c1.8-2.5,4.6-5.6,7-7.8
		c1.1-1,0.8-1.4,2-2.2c2-1.4,6-2.4,8.2-3c2.3-0.6,4.7-1.5,7.2-1.2c0.6,0.1,0.6,0.2,1.1,0.1c0.5,0,0.9,0,1.6,0
		c-0.4,1.8-1.6,3-1.6,4.7c-3.9,0.4-6.9,2.5-10.5,3.8c-0.8,0.3-1.2,1-1.9,1.4c-2.1,1.1-3.9,2.4-5.4,4.3c-0.6,0.7-0.8,1.9-0.9,2.8
		c-0.2,1.5-0.5-1.3,0.1,0.6c2.2,5.3,4.9,10.8,5.3,17c-0.5,0.6-0.9,1-1.3,1.5c-0.7,0-1.2-0.8-2-0.6c-0.6,0.1-1.3,0.4-1.8-0.4
		c-0.1-0.1-0.3-0.1-0.4-0.1c-1.9,0.3-3.8-0.4-5.6-0.6c-3-0.4-6-0.3-9-0.5c-0.9,0-2.2,0.4-3.2,0.4c-1.3,0-1.9,0.4-3.2,0.2
		c-1.3-0.2-2.5-0.2-3.7,0.2c-2,0.6-4.2,0.7-6.2,1.5c-1.8,0.7-3.6,0.9-5.3,2c-3,1.9-3.9,2.3-4.4,6.4c-0.1,0.8-0.6,1.5-0.5,2.5
		C115.4,199.6,114.9,201,114.2,202.2z"/>
	<path id="color4_3_" class="st53" d="M140.4,164c-2.2-0.7-5.3-0.3-7.7-1.5c-0.2-0.2-0.2-1.4-0.8-2.1c0.4-2.7,2.1-3.5,3.9-5.2
		c0.6-2.4,1.7-4.4,3.5-6.1c1.5-1.3,2.1-2.1,3.6-3.9c5.6,0.4,11.9-0.5,17.3,0.1c6.7,0.8,13.7,0,20.5,0.5c-0.8,1.1-1.6,3.4-3,4.4
		c-0.4,0-1.1-0.6-1.8-0.6c-1.2,0-2.3-0.1-3.5,0.4c-1,0.4-2.2-0.3-3.2,0.5c-2.7,0.2-5.2,0.9-7.7,2c-1.4-0.3-2.8,1.3-4.1,1.4
		c-2,0.1-3.9-0.1-5.7,0.8c-3.3,1.5-5.8,3.1-9,5C141.2,160.8,140.7,162,140.4,164z"/>
	<path id="color4_2_" class="st64" d="M120.6,178.5c4.2-5.4,9.8-9.5,15.1-13.8c1.8-0.4,3.5,0.2,5.5,0.6c-0.3,1-1.1,1.7-1.6,2.6
		c-0.5,0.8-1.1,1.5-1.5,2.4c-1.1,2.4-0.6,4.6,1,6.7c-0.7,0.4-1.5,0.2-2.2,0.2c-2.9-0.2-5.6,0.9-8.5,0.5c-1.1,0.8-2.5,0.2-3.6,0.6
		c-1.2,0.5-2.3,0.4-3.4,0.4C121,178.7,120.7,178.8,120.6,178.5z"/>
	<path id="color4_1_" class="st65" d="M172.6,175.9c-0.7,0-1.9,0.3-2.5,0.3c-1.5-1.2-1.1-2.5-1.3-4c-0.3-2.4-0.1-4.8-0.1-7.2
		c0-1,0.4-1.6,0.2-2.7c-0.2-0.9-0.5-2.7,0.2-3.5c0.2-0.3,0.8-0.3,0.8-0.7c1.4-0.5,2.1-0.5,3.9-0.8c0.7,0.5,0.6,1,0.5,1.3
		c-0.7,1.4-1,2.8-1.1,4.3C173,167.4,173.1,171.2,172.6,175.9z"/>
	<text transform="matrix(1 0 0 1 110.875 189.8982)" class="st8 st9">4</text>
	<text transform="matrix(1 0 0 1 142.9775 152.679)" class="st8 st9">4</text>
	<text transform="matrix(1 0 0 1 130.4463 173.8264)" class="st8 st9">4</text>
	<text transform="matrix(1 0 0 1 151.291 175.7161)" class="st8 st9">4</text>
	<text transform="matrix(1 0 0 1 168.9863 167.5618)" class="st8 st9">4</text>
	<text transform="matrix(1 0 0 1 179.7705 161.0598)" class="st8 st9">4</text>
	<text transform="matrix(1 0 0 1 194.0488 151.1282)" class="st8 st9">4</text>
	<text transform="matrix(1 0 0 1 202.124 155.1477)" class="st8 st9">4</text>
	<text transform="matrix(1 0 0 1 204.0977 163.4026)" class="st8 st9">4</text>
	<text transform="matrix(1 0 0 1 208.4717 166.261)" class="st8 st9">4</text>
	<text transform="matrix(1 0 0 1 227.0684 163.5833)" class="st8 st9">4</text>
	<text transform="matrix(1 0 0 1 257.9326 180.5345)" class="st8 st9">4</text>
	<text transform="matrix(1 0 0 1 268.0127 166.6438)" class="st8 st9">4</text>
	<text transform="matrix(1 0 0 1 282.2598 172.6536)" class="st8 st9">4</text>
	<text transform="matrix(1 0 0 1 300.9189 164.6057)" class="st8 st9">4</text>
	<text transform="matrix(1 0 0 1 364.5215 171.6682)" class="st8 st9">4</text>
	<text transform="matrix(1 0 0 1 358.2559 160.2229)" class="st8 st9">4</text>
	<text transform="matrix(1 0 0 1 399.4141 173.1057)" class="st8 st9">4</text>
	<text transform="matrix(1 0 0 1 417.5811 167.7805)" class="st8 st9">4</text>
	<text transform="matrix(1 0 0 1 437.3535 163.0686)" class="st8 st9">4</text>
	<text transform="matrix(1 0 0 1 437.3535 178.2952)" class="st8 st9">4</text>
	<text transform="matrix(1 0 0 1 469.6191 192.3875)" class="st8 st9">4</text>
	<text transform="matrix(1 0 0 1 458.0352 187.616)" class="st8 st9">4</text>
	<text transform="matrix(1 0 0 1 432.8662 186.8308)" class="st8 st9">4</text>
	<text transform="matrix(1 0 0 1 478.6055 199.5984)" class="st8 st9">4</text>
	<text transform="matrix(1 0 0 1 451.3555 172.6536)" class="st8 st9">4</text>
</g>
<g id="color8">
	<path id="color8_5_" class="st66" d="M184.9,135.2c-1,0.1-1.3-0.3-2.6,0.1c-0.5,1.8-0.9,3-0.7,5.1c0.1,0.5,0.4,0.9,0.4,1.5
		c1.7,1,3.3,1.6,4.6,2.1c0.2,0.3,0.1,0.2,0.1,0.6c-0.1,0.1-1.7,0.5-1.8,0.5c-3.3,0-6.5-0.7-9.7-0.7c-6.9-0.1-13.3,0.4-19.9-0.3
		c-4.2-0.4-8.3-0.2-12.5-0.3c-0.9,0-4.2-0.3-5.2-0.2c-0.9,0.1-0.8-2.8-1.7-2.8c0-1.2,1.6-1,1.6-2.2c1.4-0.4,2-0.8,3.2-1.6
		c4-2.8,7.2-3.6,11.3-3.7c1.2,0,2.5,0.1,3.7,0c0.6,0,0.7-0.5,1.3-0.3c0.2-1.4,1.8-2.2,2.1-3.1c4.6,0.6,7.9,0.6,12.5,0.7
		c0.6,0,1.6-0.7,2.1-0.4c1.5,2,3.8,4.1,3.9,7.8c0.8-4.3,1.6-5.4,2.7-7.4c4.4,0,5.6,0.2,11.6-0.3c0.4,0.7,2.2,1.9,2.9,2.1
		c1.2,0.4,2.6,0.3,3.8,0.3c1.5,0.1,2.9,0.2,4.4-0.1c2-0.4,4.1,0.2,6.1-0.5c3,0.2,5.2-1.2,8.1-1.5c0.4-0.7,1.9,0.1,2.3-0.8
		c0.5,0,1.5-0.1,2-0.1c0.3,2.6-0.8,5.7-0.5,8.2c-0.1,1-0.1,1-0.4,1.2c-3.2-0.3-5.7-0.7-8.8-0.9c-2.7-0.4-2.1-0.2-4.5-0.5
		c-2.6-0.4-3.3-0.4-4.9-0.5c-2.3-0.1-2.8-0.4-4.3-0.4c-1,0-2.5-0.5-3.5-0.4"/>
	<path id="color8_4_" class="st67" d="M189.7,144.5c-2.1-0.1-1.8,0.7-1.7-0.2c0.2-1.3-0.4-1.1-4.8-2.8c0,0-0.9-0.4-0.7-2.2
		c0.4-1.8,0.2-1.1,0.7-2.8c0.9,0,0.9,0,1.5,0c0.8,0,0.5,0.1,0.8,0.1c1.7,0.2,0.1-0.1,1.7,0.2c3.2,0.3,2.1,0.2,4.5,0.5
		c1.1,0.1,1.9,0.2,3.1,0.3c0.9,0.1,2.1,0.1,3.3,0.3c0.1,0,1.4,0.2,1.5,0.2c2.5-0.3,4.3,0.9,6.8,0.7c1-0.1,2.5,0.4,3.6,0.4
		c1-0.1,2.6,0.3,3.9,0.4c0.1,0,1.1,0,1.2,0.1c3.8,0.7,0.6-0.1,3.8,0.2c1,0.1,1.5,0.4,2.8,0.5c1,0.1,2.4-0.2,3.3,0.2
		c1.4,0.5,2.8,0.1,4.1,0.5c1.9,0.5,3.9,0.1,5.7,0.5c1.6,0.3,3.3,0.1,4.8,0.5c1.9,0.5,3.9,0.1,5.7,0.5c1.9,0.5,3.7,0.1,5.5,0.4
		c2.1,0.4,4.2,0.1,6.2,0.5c2.2,0.5,12,0.4,14.1,0.9c2.4,0.5,4.8,0.1,7.1,0.5c3.6,0.7,7.2,0,10.7,0.5c3.4,0.5,7.3-0.5,10.7-0.3
		c0.8,0,1,0.7,1.9,0.3c1.2-0.6,2.6,0.2,3.8,0.5c0.9,0.3,1.8,0.4,2.8,0.4c1.2,0,2.4,0,3.7,0c1.4-1.9,3.6-2.5,5.8-2.4
		c2.2,0.1,4.4-0.9,6.6-0.5c1.2-0.7,2.4-0.5,3.7-0.5c1,0,1.8-0.7,2.8-0.5c0.9,0.1,5,0.3,6-0.2c0.5-0.3,1.3-0.1,2.1-0.1
		c0.2,1.1,0.1,2.2,0.1,3.3c0,1.1,0,2.2,0,3.3c0.9,0.9,1.6,0.5,2.8,0.7c1.9,0.4,0.4,0.6,1.9,0.4c1.5-0.2,2.6,0.3,4.1,0.4
		c2.2,0.1,4.1-0.7,5.6-2.5c0.1-0.2,0.3-0.3,0.5-0.5c0.2-0.5,0.1-1.1,0.1-1.4c-1.8-2-4.5-2.7-5.7-5.5c1.4-0.4,2.5-1,3.7-0.7
		c0.8,0.1,1.3-0.6,2.1-0.5c0.6,0.1,1.4,0.3,1.9-0.4c1.3,0.2,2.5-0.2,3.7-0.5c1.9-0.5,3.9-0.8,5.8-1.2c2.3-0.5,4.6-1.5,7.1-1.2
		c2.3,0.3,4.5-0.7,6.8-0.5c2.3,0.2,4.6,0.4,6.8-0.1c2.2-0.4,4.3-0.3,6.4-0.4c2.2-0.1,4.4,0,6.6,0c1.7,0,3.4,0.3,5-0.1
		c1.6-0.4,3.1-0.3,4.6-0.4c1.7,0,3.3,0,5,0c0.6,0,1.2,0,2,0c0,1.1,6.3-0.3,6.3,0.6c0.6-0.6-0.9,1.7-0.4,1.8c1.3,0-1.9,0-0.6,0
		c1.3,0.1,2.4-0.7,3.7-0.5c1.3,0.2,2.6,0.3,3.8,0c2-0.6,4-0.3,6-0.4c1.1,0,9.7-0.8,10.9-0.3c0.9,0.7,0.4,2,0.6,3.4
		c0,2.8,0.8,4.8,0.9,7.3c0.1,1.8,0.2,2.1,0,3.1c-0.1,1,0.5,1.5,0,2.9c0.6,1.3,0.5,1.9,0.7,3.3c-0.9-0.3-6.3,0-7.1-0.8
		c-0.1-0.1-3.6-0.2-3.8-0.2c-1.5,0-2.7,0.4-4.2-0.3c-3.1,0.3-3.6-0.3-6.8-0.6c-1.4-0.1-4.3-0.5-5.8-0.3c-1.3,0.2-3.5-0.5-4.8-0.6
		c-2.8-0.2-5,0.3-7.6,0.3c-2.3,0-4.5-0.7-6.8-0.6c-2.4,0.2-4.8,0-7.3,0c-2.3,0-4.7,0-7,0c-2.4,0-4.8,0-7.3,0c-2.3,0-4.7,0.1-7,0
		c-1.4-0.1-2.7,0.7-4.1,0.6c-1.4-0.1-3-0.3-4.3,0.1c-1.6,0.5-3.1,0.4-4.6,0.4c-0.9,0-1.6,0.8-2.5,0.6c-0.8-0.2-1.8-0.3-2.5,0.4
		c-1.4-0.4-2.8,0.4-4.1,0.6c-1.9,0.3-2.5,0.8-4.3,1.5c-0.1,0.1-0.6,0.6-0.8,0.6c-2.1-0.8-5-0.2-7.1-0.1c-2.5,0-5,0.4-7.5,0.5
		c-2.5,0.2-1.8,0.9-6.6,1c-3,0-5.2-0.4-8.9,0c-2.3,0.3-4.6,0.3-6.9,0.3c-4,0-8,0.7-12.1,0.6c-4.2-0.2-8.3,0-12.5,0
		c-4.1,0-8.3-0.4-12.4-0.3c-1.7,0.1-3.2-0.6-4.8-0.5c-1.7,0.1-3.4,0.3-5-0.1c-1.6-0.4-3.2-0.2-4.8-0.4c-1.2-0.2-2.5-0.3-3.7-0.5
		c-1.2-0.2-2.5-0.1-3.6-0.5c-0.9-0.3-2,0-2.7-0.6c-0.8-0.6-0.5,0.6-1.2-0.4c-1,0.3-3.1-0.5-3.9-0.8c-0.9-0.3-25-5.4-25.9-5.9"/>
	<path id="color8_6_" class="st68" d="M220.6,139c0-0.6,0.3-1.2,0.3-1.9c3.7,0.6,7.3,0.1,11.1,0c1.2,0,3.1-0.2,4.3-0.2
		c1,0,2.9,0.5,3.7-1c-0.2-0.8,0.5-2.5,0.1-4.1c3.3,0,6.1,0,9.3,0c0.6,0,1,0.4,1.5,0.6c1.1,0.3,1.8,1.1,2.5,2.1
		c1.7-0.2,3.1,0.4,4.6,1.5c1.4,1.1,3.3,1.2,5.1,2.2c2.1,1.1,4.4,1.8,6.8,1.6c1.7,0.9,3.5,0.6,5.3,0.5c6.3-0.5,3.4-1.1,5.7-1.9
		c1.8-0.6,1.1,0.9,4.4-0.2c0.2-0.6,0.9-0.9,1.2-1.2c0.8-1,0.5,0.2,1-0.9c0.3-0.8,0.7-1.8,2.1-1.5c2.8,3.3,6.3,6.1,10.1,8.7
		c0,0.5,1,0,1,0.7c-2.7,0.2-4.8,0.8-7.2,0.5c-4-0.4-7-0.3-10.5-0.4c-1.6-0.1-1.9-0.6-3.6-0.4c-1.6,0.2-4.4,0.2-5.9-0.3
		c-2.4-0.7-4.7-0.1-7-0.5c-2.3-0.5-4.7-0.1-7-0.2c-2.7-0.1-3.5-0.8-6-0.8c-1.1,0-0.7-0.1-3.1-0.2c-1-0.1-0.5,0-3-0.2
		c-1.9-0.2-3.5-0.3-5.2-0.4c-3-0.2-3.3-0.4-6.7-0.7c-1.6-0.1-2,0-4.6-0.4c-1.2-0.2-2-0.2-3.2-0.2c-1.6-0.1-2.3-0.2-3.3-0.3
		C222.9,139.2,221.4,139,220.6,139z"/>
	<text transform="matrix(1 0 0 1 408.1982 145.218)" class="st8 st9">8</text>
	<text transform="matrix(1 0 0 1 266.6357 152.762)" class="st8 st9">8</text>
	<text transform="matrix(1 0 0 1 161.4199 139.2932)" class="st8 st9">8</text>
</g>
</svg>
